<svg width="24" height="24" viewBox="0 0 24 24" fill="none" xmlns="http://www.w3.org/2000/svg">
<mask id="mask0_5422_6064" style="mask-type:alpha" maskUnits="userSpaceOnUse" x="0" y="0" width="24" height="24">
<rect width="24" height="24" transform="matrix(-1 0 0 1 24 0)" fill="#D9D9D9"/>
</mask>
<g mask="url(#mask0_5422_6064)">
<path d="M18 19.75C19.7333 19.3 21.1667 18.3667 22.3 16.95C23.4333 15.5333 24 13.8833 24 12C24 10.1167 23.4333 8.46667 22.3 7.05C21.1667 5.63333 19.7333 4.7 18 4.25V6.35C19.1833 6.75 20.1458 7.46667 20.8875 8.5C21.6292 9.53333 22 10.7 22 12C22 13.3 21.6292 14.4667 20.8875 15.5C20.1458 16.5333 19.1833 17.25 18 17.65V19.75ZM10 20C12.2167 20 14.1042 19.2208 15.6625 17.6625C17.2208 16.1042 18 14.2167 18 12C18 9.78333 17.2208 7.89583 15.6625 6.3375C14.1042 4.77917 12.2167 4 10 4C8.9 4 7.86667 4.20833 6.9 4.625C5.93333 5.04167 5.08333 5.61667 4.35 6.35L5.75 7.75C6.3 7.2 6.9375 6.77083 7.6625 6.4625C8.3875 6.15417 9.16667 6 10 6C11.6667 6 13.0833 6.58333 14.25 7.75C15.4167 8.91667 16 10.3333 16 12C16 13.6667 15.4167 15.0833 14.25 16.25C13.0833 17.4167 11.6667 18 10 18C9.16667 18 8.3875 17.8458 7.6625 17.5375C6.9375 17.2292 6.3 16.8 5.75 16.25L4.35 17.65C5.08333 18.3833 5.93333 18.9583 6.9 19.375C7.86667 19.7917 8.9 20 10 20ZM4 16L5.4 14.6L3.8 13H11V11H3.8L5.4 9.4L4 8L0 12L4 16Z" fill="#1C1B1F"/>
</g>
</svg>
