<svg width="24" height="24" viewBox="0 0 24 24" fill="none" xmlns="http://www.w3.org/2000/svg">
<path d="M20.7445 11.4702L14.7264 5.4521C14.4335 5.1592 13.9586 5.1592 13.6657 5.4521C13.3728 5.74499 13.3728 6.21986 13.6657 6.51276L18.4306 11.2776H3.70342C3.30414 11.2776 2.98047 11.6013 2.98047 12.0006C2.98047 12.3998 3.30416 12.7235 3.70342 12.7235H18.4306L13.6657 17.4884C13.3728 17.7813 13.3728 18.2561 13.6657 18.549C13.8122 18.6955 14.0041 18.7687 14.1961 18.7687C14.388 18.7687 14.5799 18.6955 14.7264 18.549L20.7445 12.5309C20.8142 12.4612 20.8694 12.3786 20.9071 12.2876C20.9448 12.1966 20.9642 12.099 20.9642 12.0006C20.9642 11.9021 20.9448 11.8045 20.9071 11.7135C20.8694 11.6226 20.8142 11.5399 20.7445 11.4702Z" fill="white"/>
</svg>
