<svg width="19" height="14" viewBox="0 0 19 14" fill="none" xmlns="http://www.w3.org/2000/svg">
<path d="M18.7448 6.46828L12.7266 0.450143C12.4338 0.157244 11.9589 0.157244 11.666 0.450143C11.3731 0.743041 11.3731 1.21791 11.666 1.51081L16.4308 6.27565H1.70367C1.30438 6.27565 0.980713 6.59935 0.980713 6.9986C0.980713 7.39788 1.30441 7.72156 1.70367 7.72156H16.4309L11.666 12.4864C11.3731 12.7793 11.3731 13.2542 11.666 13.5471C11.8124 13.6935 12.0044 13.7667 12.1963 13.7667C12.3882 13.7667 12.5802 13.6935 12.7266 13.5471L18.7448 7.52892C18.8144 7.45928 18.8697 7.3766 18.9074 7.28561C18.9451 7.19462 18.9645 7.09709 18.9645 6.9986C18.9645 6.90011 18.9451 6.80259 18.9074 6.7116C18.8697 6.6206 18.8144 6.53792 18.7448 6.46828Z" fill="black"/>
</svg>
