<svg width="100" height="101" viewBox="0 0 100 101" fill="none" xmlns="http://www.w3.org/2000/svg">
<mask id="mask0_5422_12546" style="mask-type:alpha" maskUnits="userSpaceOnUse" x="0" y="0" width="100" height="101">
<rect y="0.732422" width="100" height="100" fill="#D9D9D9"/>
</mask>
<g mask="url(#mask0_5422_12546)">
<path d="M45.832 88.2324C35.4154 88.2324 26.5612 84.5866 19.2695 77.2949C11.9779 70.0033 8.33203 61.1491 8.33203 50.7324C8.33203 45.5241 9.32161 40.6456 11.3008 36.097C13.2799 31.5484 15.9536 27.5901 19.3216 24.222C22.6897 20.8539 26.648 18.1803 31.1966 16.2012C35.7452 14.222 40.6237 13.2324 45.832 13.2324C51.0404 13.2324 55.9188 14.222 60.4674 16.2012C65.0161 18.1803 68.9744 20.8539 72.3424 24.222C75.7105 27.5901 78.3841 31.5484 80.3633 36.097C82.3425 40.6456 83.332 45.5241 83.332 50.7324V51.5658L88.8529 45.9408L94.7904 51.7741L79.1654 67.3991L63.5404 51.7741L69.4779 45.9408L74.9987 51.4616V50.7324C74.9987 42.6769 72.1515 35.8019 66.457 30.1074C60.7626 24.413 53.8876 21.5658 45.832 21.5658C37.7765 21.5658 30.9015 24.413 25.207 30.1074C19.5126 35.8019 16.6654 42.6769 16.6654 50.7324C16.7348 58.788 19.5994 65.663 25.2591 71.3574C30.9188 77.0519 37.7765 79.8991 45.832 79.8991C49.7904 79.8991 53.5056 79.1526 56.9779 77.6595C60.4501 76.1665 63.5056 74.1352 66.1445 71.5658L72.082 77.5033C68.6793 80.8366 64.7383 83.4581 60.2591 85.3678C55.78 87.2776 50.9709 88.2324 45.832 88.2324Z" fill="#00423C"/>
<path d="M44.4413 54.7118C42.6089 54.7047 41.0322 54.2537 39.7112 53.3588C38.3973 52.464 37.3852 51.1678 36.675 49.4703C35.9719 47.7729 35.6238 45.731 35.6309 43.3446C35.6309 40.9654 35.9825 38.9377 36.6856 37.2615C37.3959 35.5854 38.4079 34.3105 39.7219 33.437C41.0429 32.5563 42.616 32.1159 44.4413 32.1159C46.2666 32.1159 47.8362 32.5563 49.1501 33.437C50.4711 34.3176 51.4868 35.5961 52.197 37.2722C52.9072 38.9412 53.2588 40.9654 53.2517 43.3446C53.2517 45.7381 52.8966 47.7836 52.1863 49.481C51.4832 51.1784 50.4747 52.4746 49.1608 53.3695C47.8469 54.2644 46.2737 54.7118 44.4413 54.7118ZM44.4413 50.8873C45.6913 50.8873 46.6892 50.2587 47.4349 49.0016C48.1807 47.7445 48.55 45.8588 48.5429 43.3446C48.5429 41.6898 48.3724 40.312 48.0315 39.2111C47.6977 38.1103 47.2219 37.2828 46.604 36.7289C45.9932 36.1749 45.2723 35.8979 44.4413 35.8979C43.1984 35.8979 42.2041 36.5194 41.4584 37.7623C40.7126 39.0051 40.3362 40.8659 40.3291 43.3446C40.3291 45.0208 40.496 46.4199 40.8298 47.5421C41.1707 48.6571 41.6501 49.4952 42.268 50.0563C42.8859 50.6103 43.6104 50.8873 44.4413 50.8873ZM32.1413 70.2324V61.5051H33.4368V62.8688H33.5504C33.7322 62.4029 34.0258 62.0411 34.4311 61.7836C34.8364 61.5222 35.3232 61.3915 35.8913 61.3915C36.4671 61.3915 36.9463 61.5222 37.3288 61.7836C37.7152 62.0411 38.0163 62.4029 38.2322 62.8688H38.3232C38.5466 62.418 38.8819 62.0601 39.3288 61.7949C39.7758 61.526 40.3118 61.3915 40.9368 61.3915C41.7171 61.3915 42.3554 61.6358 42.8516 62.1245C43.3478 62.6093 43.5959 63.365 43.5959 64.3915V70.2324H42.255V64.3915C42.255 63.7476 42.0788 63.2873 41.7266 63.0108C41.3743 62.7343 40.9595 62.5961 40.4822 62.5961C39.8686 62.5961 39.3932 62.7817 39.0561 63.1529C38.719 63.5203 38.5504 63.9862 38.5504 64.5506V70.2324H37.1868V64.2551C37.1868 63.7589 37.0258 63.3593 36.7038 63.0563C36.3819 62.7495 35.9671 62.5961 35.4595 62.5961C35.111 62.5961 34.7853 62.6889 34.4822 62.8745C34.183 63.0601 33.9406 63.3176 33.755 63.6472C33.5732 63.973 33.4822 64.3498 33.4822 64.7779V70.2324H32.1413ZM46.0476 70.2324V61.5051H47.3885V70.2324H46.0476ZM46.7294 60.0506C46.468 60.0506 46.2427 59.9616 46.0533 59.7836C45.8677 59.6055 45.7749 59.3915 45.7749 59.1415C45.7749 58.8915 45.8677 58.6775 46.0533 58.4995C46.2427 58.3214 46.468 58.2324 46.7294 58.2324C46.9908 58.2324 47.2143 58.3214 47.3999 58.4995C47.5893 58.6775 47.6839 58.8915 47.6839 59.1415C47.6839 59.3915 47.5893 59.6055 47.3999 59.7836C47.2143 59.9616 46.9908 60.0506 46.7294 60.0506ZM51.1854 64.9824V70.2324H49.8445V61.5051H51.1399V62.8688H51.2536C51.4581 62.4256 51.7687 62.0695 52.1854 61.8006C52.602 61.5279 53.1399 61.3915 53.799 61.3915C54.3899 61.3915 54.907 61.5127 55.3501 61.7551C55.7933 61.9938 56.138 62.3574 56.3842 62.8461C56.6304 63.3309 56.7536 63.9445 56.7536 64.687V70.2324H55.4126V64.7779C55.4126 64.0923 55.2346 63.5582 54.8786 63.1756C54.5225 62.7892 54.0339 62.5961 53.4126 62.5961C52.9846 62.5961 52.602 62.6889 52.2649 62.8745C51.9316 63.0601 51.6683 63.3309 51.4751 63.687C51.282 64.043 51.1854 64.4748 51.1854 64.9824Z" fill="#00423C"/>
</g>
</svg>
