<svg width="112" height="81" viewBox="0 0 112 81" fill="none" xmlns="http://www.w3.org/2000/svg">
<path d="M29.7367 80.3304C23.6287 80.3068 18.373 78.8034 13.9696 75.8205C9.5899 72.8375 6.21632 68.517 3.8489 62.8588C1.50515 57.2007 0.345111 50.3944 0.368786 42.4398C0.368786 34.5089 1.54066 27.7499 3.88441 22.1628C6.25183 16.5757 9.62541 12.3262 14.0051 9.41424C18.4086 6.47863 23.6524 5.01083 29.7367 5.01083C35.821 5.01083 41.053 6.47863 45.4327 9.41424C49.8361 12.3498 53.2215 16.6112 55.589 22.1983C57.9564 27.7618 59.1283 34.5089 59.1046 42.4398C59.1046 50.418 57.9209 57.2362 55.5534 62.8944C53.2097 68.5525 49.848 72.873 45.4682 75.856C41.0885 78.839 35.8446 80.3304 29.7367 80.3304ZM29.7367 67.5819C33.9034 67.5819 37.2296 65.4867 39.7154 61.2963C42.2012 57.106 43.4322 50.8205 43.4086 42.4398C43.4086 36.9237 42.8404 32.3309 41.704 28.6614C40.5913 24.9919 39.0052 22.2338 36.9455 20.3872C34.9095 18.5407 32.5066 17.6174 29.7367 17.6174C25.5937 17.6174 22.2793 19.6889 19.7935 23.8319C17.3077 27.9748 16.053 34.1775 16.0293 42.4398C16.0293 48.0269 16.5856 52.6908 17.6983 56.4313C18.8347 60.1481 20.4327 62.9417 22.4924 64.812C24.552 66.6586 26.9668 67.5819 29.7367 67.5819ZM91.8301 37.5506V35.2495C91.8301 33.4597 92.2136 31.8049 92.9806 30.285C93.7619 28.7651 94.8912 27.5435 96.3684 26.6202C97.8457 25.6969 99.6497 25.2353 101.78 25.2353C103.954 25.2353 105.779 25.6969 107.256 26.6202C108.748 27.5293 109.87 28.7438 110.623 30.2637C111.39 31.7694 111.773 33.4313 111.773 35.2495V37.5506C111.773 39.3404 111.39 40.9952 110.623 42.5151C109.856 44.035 108.726 45.2566 107.235 46.1799C105.743 47.1032 103.925 47.5648 101.78 47.5648C99.6213 47.5648 97.8031 47.1032 96.3258 46.1799C94.8485 45.2566 93.7264 44.035 92.9593 42.5151C92.2065 40.9952 91.8301 39.3404 91.8301 37.5506ZM98.627 35.2495V37.5506C98.627 38.4597 98.8471 39.3333 99.2875 40.1713C99.742 41.0094 100.573 41.4284 101.78 41.4284C103.016 41.4284 103.847 41.0236 104.273 40.214C104.699 39.3901 104.912 38.5023 104.912 37.5506V35.2495C104.912 34.2978 104.707 33.4029 104.295 32.5648C103.897 31.7125 103.059 31.2864 101.78 31.2864C100.587 31.2864 99.7633 31.7125 99.3088 32.5648C98.8542 33.4029 98.627 34.2978 98.627 35.2495ZM69.2022 12.579V10.2779C69.2022 8.45969 69.5929 6.79776 70.3741 5.29208C71.1696 3.77219 72.3059 2.5577 73.7832 1.64861C75.2605 0.725317 77.0502 0.263669 79.1525 0.263669C81.3258 0.263669 83.1511 0.725317 84.6284 1.64861C86.1199 2.5577 87.2491 3.77219 88.0162 5.29208C88.7832 6.79776 89.1667 8.45969 89.1667 10.2779V12.579C89.1667 14.3972 88.7761 16.0591 87.9949 17.5648C87.2278 19.0705 86.0985 20.2708 84.6071 21.1657C83.1156 22.0605 81.2974 22.508 79.1525 22.508C77.0076 22.508 75.1895 22.0534 73.698 21.1444C72.2207 20.2353 71.0985 19.0279 70.3315 17.5222C69.5787 16.0165 69.2022 14.3688 69.2022 12.579ZM76.063 10.2779V12.579C76.063 13.5307 76.2832 14.4185 76.7235 15.2424C77.1781 16.052 77.9877 16.4569 79.1525 16.4569C80.4025 16.4569 81.2335 16.052 81.6454 15.2424C82.0716 14.4185 82.2846 13.5307 82.2846 12.579V10.2779C82.2846 9.32617 82.0858 8.43128 81.688 7.59321C81.2903 6.74094 80.4451 6.3148 79.1525 6.3148C77.9593 6.3148 77.1426 6.74804 76.7022 7.61452C76.2761 8.481 76.063 9.36878 76.063 10.2779ZM72.4196 45.7324L102.42 2.09605H108.236L78.2363 45.7324H72.4196Z" fill="#00423C"/>
</svg>
