<svg width="100" height="101" viewBox="0 0 100 101" fill="none" xmlns="http://www.w3.org/2000/svg">
<mask id="mask0_5422_12534" style="mask-type:alpha" maskUnits="userSpaceOnUse" x="0" y="0" width="100" height="101">
<rect y="0.732422" width="100" height="100" fill="#D9D9D9"/>
</mask>
<g mask="url(#mask0_5422_12534)">
<path d="M82.2917 94.8984L43.125 55.5234C39.8611 56.2873 36.8229 57.4332 34.0104 58.9609C31.1979 60.4887 28.6806 62.3984 26.4583 64.6901L17.7083 55.7318C19.9306 53.5096 22.3264 51.5651 24.8958 49.8984C27.4653 48.2318 30.2083 46.7734 33.125 45.5234L23.75 36.1484C20.9028 37.6068 18.2465 39.2214 15.7812 40.9922C13.316 42.763 10.9722 44.7596 8.75 46.9818L0 38.0234C2.22222 35.8012 4.53125 33.8047 6.92708 32.0339C9.32292 30.263 11.875 28.579 14.5833 26.9818L5.83333 18.2318L11.6667 12.3984L88.3333 89.0651L82.2917 94.8984ZM50 88.2318C47.0833 88.2318 44.6181 87.2075 42.6042 85.1589C40.5903 83.1103 39.5833 80.6623 39.5833 77.8151C39.5833 74.8984 40.5903 72.4332 42.6042 70.4193C44.6181 68.4054 47.0833 67.3984 50 67.3984C52.9167 67.3984 55.3819 68.4054 57.3958 70.4193C59.4097 72.4332 60.4167 74.8984 60.4167 77.8151C60.4167 80.6623 59.4097 83.1103 57.3958 85.1589C55.3819 87.2075 52.9167 88.2318 50 88.2318ZM74.5833 63.4401L53.5417 42.3984C59.1667 42.954 64.4271 44.3776 69.3229 46.6693C74.2188 48.9609 78.5417 51.9818 82.2917 55.7318L74.5833 63.4401ZM91.25 46.9818C85.9028 41.6346 79.7049 37.4505 72.6562 34.4297C65.6076 31.4089 58.0556 29.8984 50 29.8984C48.5417 29.8984 47.1354 29.9505 45.7812 30.0547C44.4271 30.1589 43.0556 30.3151 41.6667 30.5234L31.0417 19.8984C34.0972 19.0651 37.2049 18.4401 40.3646 18.0234C43.5243 17.6068 46.7361 17.3984 50 17.3984C59.8611 17.3984 69.0625 19.2387 77.6042 22.9193C86.1458 26.5998 93.6111 31.6346 100 38.0234L91.25 46.9818Z" fill="#00423C"/>
</g>
</svg>
