<svg width="439" height="132" viewBox="0 0 439 132" fill="none" xmlns="http://www.w3.org/2000/svg">
<path d="M20.6445 13V53H12.1875V21.0273H11.9531L2.79297 26.7695V19.2695L12.6953 13H20.6445ZM29.5459 45.9688V39.3086L46.2451 13H51.9873V22.2187H48.5889L38.0615 38.8789V39.1914H61.792V45.9688H29.5459ZM48.7451 53V43.9375L48.9014 40.9883V13H56.8311V53H48.7451ZM83.1104 53.8789C79.751 53.8659 76.8604 53.0391 74.4385 51.3984C72.0296 49.7578 70.1742 47.3815 68.8721 44.2695C67.583 41.1576 66.945 37.4141 66.958 33.0391C66.958 28.6771 67.6025 24.9596 68.8916 21.8867C70.1937 18.8138 72.0492 16.4766 74.458 14.875C76.8799 13.2604 79.764 12.4531 83.1104 12.4531C86.4567 12.4531 89.3343 13.2604 91.7432 14.875C94.165 16.4896 96.027 18.8333 97.3291 21.9062C98.6312 24.9661 99.2757 28.6771 99.2627 33.0391C99.2627 37.4271 98.6117 41.1771 97.3096 44.2891C96.0205 47.401 94.1716 49.7773 91.7627 51.418C89.3538 53.0586 86.4697 53.8789 83.1104 53.8789ZM83.1104 46.8672C85.402 46.8672 87.2314 45.7148 88.5986 43.4102C89.9658 41.1055 90.6429 37.6484 90.6299 33.0391C90.6299 30.0052 90.3174 27.4792 89.6924 25.4609C89.0804 23.4427 88.208 21.9258 87.0752 20.9102C85.9554 19.8945 84.6338 19.3867 83.1104 19.3867C80.8317 19.3867 79.0088 20.526 77.6416 22.8047C76.2744 25.0833 75.5843 28.4948 75.5713 33.0391C75.5713 36.112 75.8773 38.6771 76.4893 40.7344C77.1143 42.7786 77.9932 44.3151 79.126 45.3437C80.2588 46.3594 81.5869 46.8672 83.1104 46.8672ZM117.246 46.9062V19.25H124.238V46.9062H117.246ZM106.914 36.5742V29.582H134.57V36.5742H106.914ZM177.339 24.5039C177.183 22.9284 176.512 21.7044 175.327 20.832C174.142 19.9596 172.534 19.5234 170.503 19.5234C169.123 19.5234 167.957 19.7187 167.007 20.1094C166.056 20.487 165.327 21.0143 164.819 21.6914C164.325 22.3685 164.077 23.1367 164.077 23.9961C164.051 24.7122 164.201 25.3372 164.526 25.8711C164.865 26.4049 165.327 26.8672 165.913 27.2578C166.499 27.6354 167.176 27.9674 167.944 28.2539C168.713 28.5273 169.533 28.7617 170.405 28.957L173.999 29.8164C175.744 30.207 177.345 30.7279 178.804 31.3789C180.262 32.0299 181.525 32.8307 182.593 33.7812C183.66 34.7318 184.487 35.8516 185.073 37.1406C185.672 38.4297 185.978 39.9076 185.991 41.5742C185.978 44.0221 185.353 46.1445 184.116 47.9414C182.892 49.7253 181.121 51.112 178.804 52.1016C176.499 53.0781 173.719 53.5664 170.464 53.5664C167.235 53.5664 164.422 53.0716 162.026 52.082C159.644 51.0924 157.782 49.6276 156.44 47.6875C155.112 45.7344 154.416 43.319 154.351 40.4414H162.534C162.625 41.7826 163.009 42.9023 163.687 43.8008C164.377 44.6862 165.295 45.3568 166.44 45.8125C167.599 46.2552 168.908 46.4766 170.366 46.4766C171.799 46.4766 173.042 46.2682 174.097 45.8516C175.164 45.4349 175.991 44.8555 176.577 44.1133C177.163 43.3711 177.456 42.5182 177.456 41.5547C177.456 40.6562 177.189 39.901 176.655 39.2891C176.134 38.6771 175.366 38.1562 174.351 37.7266C173.348 37.2969 172.118 36.9062 170.659 36.5547L166.304 35.4609C162.931 34.6406 160.269 33.3581 158.315 31.6133C156.362 29.8685 155.392 27.5182 155.405 24.5625C155.392 22.1406 156.037 20.0247 157.339 18.2148C158.654 16.4049 160.457 14.9922 162.749 13.9766C165.041 12.9609 167.645 12.4531 170.562 12.4531C173.53 12.4531 176.121 12.9609 178.335 13.9766C180.562 14.9922 182.293 16.4049 183.53 18.2148C184.767 20.0247 185.405 22.1211 185.444 24.5039H177.339ZM210.762 40.2266V23H219.082V53H211.094V47.5508H210.781C210.104 49.3086 208.978 50.7214 207.402 51.7891C205.84 52.8568 203.932 53.3906 201.68 53.3906C199.674 53.3906 197.91 52.9349 196.387 52.0234C194.863 51.112 193.672 49.8164 192.813 48.1367C191.966 46.457 191.536 44.4453 191.523 42.1016V23H199.844V40.6172C199.857 42.388 200.332 43.7878 201.27 44.8164C202.207 45.8451 203.464 46.3594 205.039 46.3594C206.042 46.3594 206.979 46.1315 207.852 45.6758C208.724 45.207 209.427 44.5169 209.961 43.6055C210.508 42.694 210.775 41.5677 210.762 40.2266ZM225.737 64.25V23H233.94V28.0391H234.312C234.676 27.2318 235.203 26.4115 235.894 25.5781C236.597 24.7318 237.508 24.0286 238.628 23.4688C239.761 22.8958 241.167 22.6094 242.847 22.6094C245.034 22.6094 247.052 23.1823 248.901 24.3281C250.75 25.4609 252.228 27.1732 253.335 29.4648C254.442 31.7435 254.995 34.6016 254.995 38.0391C254.995 41.3854 254.455 44.2109 253.374 46.5156C252.306 48.8073 250.848 50.5456 248.999 51.7305C247.163 52.9023 245.106 53.4883 242.827 53.4883C241.213 53.4883 239.839 53.2214 238.706 52.6875C237.586 52.1536 236.668 51.4831 235.952 50.6758C235.236 49.8555 234.689 49.0286 234.312 48.1953H234.058V64.25H225.737ZM233.882 38C233.882 39.7839 234.129 41.3398 234.624 42.668C235.119 43.9961 235.835 45.0312 236.772 45.7734C237.71 46.5026 238.849 46.8672 240.19 46.8672C241.545 46.8672 242.69 46.4961 243.628 45.7539C244.565 44.9987 245.275 43.957 245.757 42.6289C246.252 41.2878 246.499 39.7448 246.499 38C246.499 36.2682 246.258 34.7448 245.776 33.4297C245.295 32.1146 244.585 31.0859 243.647 30.3437C242.71 29.6016 241.558 29.2305 240.19 29.2305C238.836 29.2305 237.69 29.5885 236.753 30.3047C235.828 31.0208 235.119 32.0365 234.624 33.3516C234.129 34.6667 233.882 36.2161 233.882 38ZM260.542 64.25V23H268.745V28.0391H269.116C269.481 27.2318 270.008 26.4115 270.698 25.5781C271.401 24.7318 272.313 24.0286 273.433 23.4688C274.565 22.8958 275.972 22.6094 277.651 22.6094C279.839 22.6094 281.857 23.1823 283.706 24.3281C285.555 25.4609 287.033 27.1732 288.14 29.4648C289.246 31.7435 289.8 34.6016 289.8 38.0391C289.8 41.3854 289.259 44.2109 288.179 46.5156C287.111 48.8073 285.653 50.5456 283.804 51.7305C281.968 52.9023 279.91 53.4883 277.632 53.4883C276.017 53.4883 274.644 53.2214 273.511 52.6875C272.391 52.1536 271.473 51.4831 270.757 50.6758C270.041 49.8555 269.494 49.0286 269.116 48.1953H268.862V64.25H260.542ZM268.687 38C268.687 39.7839 268.934 41.3398 269.429 42.668C269.924 43.9961 270.64 45.0312 271.577 45.7734C272.515 46.5026 273.654 46.8672 274.995 46.8672C276.349 46.8672 277.495 46.4961 278.433 45.7539C279.37 44.9987 280.08 43.957 280.562 42.6289C281.056 41.2878 281.304 39.7448 281.304 38C281.304 36.2682 281.063 34.7448 280.581 33.4297C280.099 32.1146 279.39 31.0859 278.452 30.3437C277.515 29.6016 276.362 29.2305 274.995 29.2305C273.641 29.2305 272.495 29.5885 271.558 30.3047C270.633 31.0208 269.924 32.0365 269.429 33.3516C268.934 34.6667 268.687 36.2161 268.687 38ZM308.901 53.5859C305.868 53.5859 303.244 52.9414 301.03 51.6523C298.83 50.3503 297.131 48.5404 295.933 46.2227C294.735 43.8919 294.136 41.1901 294.136 38.1172C294.136 35.0182 294.735 32.3099 295.933 29.9922C297.131 27.6615 298.83 25.8516 301.03 24.5625C303.244 23.2604 305.868 22.6094 308.901 22.6094C311.935 22.6094 314.552 23.2604 316.753 24.5625C318.966 25.8516 320.672 27.6615 321.87 29.9922C323.068 32.3099 323.667 35.0182 323.667 38.1172C323.667 41.1901 323.068 43.8919 321.87 46.2227C320.672 48.5404 318.966 50.3503 316.753 51.6523C314.552 52.9414 311.935 53.5859 308.901 53.5859ZM308.94 47.1406C310.321 47.1406 311.473 46.75 312.397 45.9688C313.322 45.1745 314.019 44.0937 314.487 42.7266C314.969 41.3594 315.21 39.8034 315.21 38.0586C315.21 36.3138 314.969 34.7578 314.487 33.3906C314.019 32.0234 313.322 30.9427 312.397 30.1484C311.473 29.3542 310.321 28.957 308.94 28.957C307.547 28.957 306.375 29.3542 305.425 30.1484C304.487 30.9427 303.778 32.0234 303.296 33.3906C302.827 34.7578 302.593 36.3138 302.593 38.0586C302.593 39.8034 302.827 41.3594 303.296 42.7266C303.778 44.0937 304.487 45.1745 305.425 45.9688C306.375 46.75 307.547 47.1406 308.94 47.1406ZM329.077 53V23H337.144V28.2344H337.456C338.003 26.3724 338.921 24.9661 340.21 24.0156C341.499 23.0521 342.983 22.5703 344.663 22.5703C345.08 22.5703 345.529 22.5964 346.011 22.6484C346.493 22.7005 346.916 22.7721 347.28 22.8633V30.2461C346.89 30.1289 346.349 30.0247 345.659 29.9336C344.969 29.8424 344.338 29.7969 343.765 29.7969C342.541 29.7969 341.447 30.0638 340.483 30.5977C339.533 31.1185 338.778 31.8477 338.218 32.7852C337.671 33.7227 337.397 34.8034 337.397 36.0273V53H329.077ZM369.043 23V29.25H350.977V23H369.043ZM355.078 15.8125H363.398V43.7812C363.398 44.5495 363.516 45.1484 363.75 45.5781C363.984 45.9948 364.31 46.2878 364.727 46.457C365.156 46.6263 365.651 46.7109 366.211 46.7109C366.602 46.7109 366.992 46.6784 367.383 46.6133C367.773 46.5352 368.073 46.4766 368.281 46.4375L369.59 52.6289C369.173 52.7591 368.587 52.9089 367.832 53.0781C367.077 53.2604 366.159 53.3711 365.078 53.4102C363.073 53.4883 361.315 53.2214 359.805 52.6094C358.307 51.9974 357.142 51.0469 356.309 49.7578C355.475 48.4687 355.065 46.8411 355.078 44.875V15.8125ZM387.813 53.5859C384.727 53.5859 382.07 52.9609 379.844 51.7109C377.63 50.4479 375.924 48.6641 374.727 46.3594C373.529 44.0417 372.93 41.3008 372.93 38.1367C372.93 35.0508 373.529 32.3424 374.727 30.0117C375.924 27.681 377.611 25.8646 379.785 24.5625C381.973 23.2604 384.538 22.6094 387.48 22.6094C389.46 22.6094 391.302 22.9284 393.008 23.5664C394.727 24.1914 396.224 25.1354 397.5 26.3984C398.789 27.6615 399.792 29.25 400.508 31.1641C401.224 33.0651 401.582 35.2917 401.582 37.8437V40.1289H376.25V34.9727H393.75C393.75 33.7747 393.49 32.7135 392.969 31.7891C392.448 30.8646 391.725 30.1419 390.801 29.6211C389.889 29.0872 388.828 28.8203 387.617 28.8203C386.354 28.8203 385.234 29.1133 384.258 29.6992C383.294 30.2721 382.539 31.0469 381.992 32.0234C381.445 32.987 381.165 34.0612 381.152 35.2461V40.1484C381.152 41.6328 381.426 42.9154 381.973 43.9961C382.533 45.0768 383.32 45.9102 384.336 46.4961C385.352 47.082 386.556 47.375 387.949 47.375C388.874 47.375 389.72 47.2448 390.488 46.9844C391.257 46.724 391.914 46.3333 392.461 45.8125C393.008 45.2917 393.424 44.6536 393.711 43.8984L401.406 44.4062C401.016 46.2552 400.215 47.8698 399.004 49.25C397.806 50.6172 396.257 51.6849 394.355 52.4531C392.467 53.2083 390.286 53.5859 387.813 53.5859ZM418.066 53.4883C415.788 53.4883 413.724 52.9023 411.875 51.7305C410.039 50.5456 408.581 48.8073 407.5 46.5156C406.432 44.2109 405.898 41.3854 405.898 38.0391C405.898 34.6016 406.452 31.7435 407.559 29.4648C408.665 27.1732 410.137 25.4609 411.973 24.3281C413.822 23.1823 415.846 22.6094 418.047 22.6094C419.727 22.6094 421.126 22.8958 422.246 23.4688C423.379 24.0286 424.29 24.7318 424.98 25.5781C425.684 26.4115 426.217 27.2318 426.582 28.0391H426.836V13H435.137V53H426.934V48.1953H426.582C426.191 49.0286 425.638 49.8555 424.922 50.6758C424.219 51.4831 423.301 52.1536 422.168 52.6875C421.048 53.2214 419.681 53.4883 418.066 53.4883ZM420.703 46.8672C422.044 46.8672 423.177 46.5026 424.102 45.7734C425.039 45.0312 425.755 43.9961 426.25 42.668C426.758 41.3398 427.012 39.7839 427.012 38C427.012 36.2161 426.764 34.6667 426.27 33.3516C425.775 32.0365 425.059 31.0208 424.121 30.3047C423.184 29.5885 422.044 29.2305 420.703 29.2305C419.336 29.2305 418.184 29.6016 417.246 30.3437C416.309 31.0859 415.599 32.1146 415.117 33.4297C414.635 34.7448 414.395 36.2682 414.395 38C414.395 39.7448 414.635 41.2878 415.117 42.6289C415.612 43.957 416.322 44.9987 417.246 45.7539C418.184 46.4961 419.336 46.8672 420.703 46.8672ZM38.7695 93.0039H30.2148C30.0586 91.8971 29.7396 90.9141 29.2578 90.0547C28.776 89.1823 28.1576 88.4401 27.4023 87.8281C26.6471 87.2161 25.7747 86.7474 24.7852 86.4219C23.8086 86.0964 22.7474 85.9336 21.6016 85.9336C19.5313 85.9336 17.7279 86.4479 16.1914 87.4766C14.6549 88.4922 13.4635 89.9766 12.6172 91.9297C11.7708 93.8698 11.3477 96.2266 11.3477 99C11.3477 101.852 11.7708 104.247 12.6172 106.187C13.4766 108.128 14.6745 109.592 16.2109 110.582C17.7474 111.572 19.5247 112.066 21.543 112.066C22.6758 112.066 23.724 111.917 24.6875 111.617C25.6641 111.318 26.5299 110.882 27.2852 110.309C28.0404 109.723 28.6654 109.013 29.1602 108.18C29.668 107.346 30.0195 106.396 30.2148 105.328L38.7695 105.367C38.5482 107.203 37.9948 108.974 37.1094 110.68C36.237 112.372 35.0586 113.889 33.5742 115.23C32.1029 116.559 30.3451 117.613 28.3008 118.395C26.2695 119.163 23.9714 119.547 21.4063 119.547C17.8385 119.547 14.6484 118.74 11.8359 117.125C9.03646 115.51 6.82292 113.173 5.19531 110.113C3.58073 107.053 2.77344 103.349 2.77344 99C2.77344 94.638 3.59375 90.9271 5.23438 87.8672C6.875 84.8073 9.10156 82.4766 11.9141 80.875C14.7266 79.2604 17.8906 78.4531 21.4063 78.4531C23.724 78.4531 25.8724 78.7786 27.8516 79.4297C29.8438 80.0807 31.6081 81.0312 33.1445 82.2812C34.681 83.5182 35.931 85.0352 36.8945 86.832C37.8711 88.6289 38.4961 90.6862 38.7695 93.0039ZM58.2324 119.586C55.1986 119.586 52.5749 118.941 50.3613 117.652C48.1608 116.35 46.4616 114.54 45.2637 112.223C44.0658 109.892 43.4668 107.19 43.4668 104.117C43.4668 101.018 44.0658 98.3099 45.2637 95.9922C46.4616 93.6615 48.1608 91.8516 50.3613 90.5625C52.5749 89.2604 55.1986 88.6094 58.2324 88.6094C61.2663 88.6094 63.8835 89.2604 66.084 90.5625C68.2975 91.8516 70.0033 93.6615 71.2012 95.9922C72.3991 98.3099 72.998 101.018 72.998 104.117C72.998 107.19 72.3991 109.892 71.2012 112.223C70.0033 114.54 68.2975 116.35 66.084 117.652C63.8835 118.941 61.2663 119.586 58.2324 119.586ZM58.2715 113.141C59.6517 113.141 60.804 112.75 61.7285 111.969C62.653 111.174 63.3496 110.094 63.8184 108.727C64.3001 107.359 64.541 105.803 64.541 104.059C64.541 102.314 64.3001 100.758 63.8184 99.3906C63.3496 98.0234 62.653 96.9427 61.7285 96.1484C60.804 95.3542 59.6517 94.957 58.2715 94.957C56.8783 94.957 55.7064 95.3542 54.7559 96.1484C53.8184 96.9427 53.1087 98.0234 52.627 99.3906C52.1582 100.758 51.9238 102.314 51.9238 104.059C51.9238 105.803 52.1582 107.359 52.627 108.727C53.1087 110.094 53.8184 111.174 54.7559 111.969C55.7064 112.75 56.8783 113.141 58.2715 113.141ZM97.6465 106.227V89H105.967V119H97.9785V113.551H97.666C96.9889 115.309 95.8626 116.721 94.2871 117.789C92.7246 118.857 90.8171 119.391 88.5645 119.391C86.5592 119.391 84.7949 118.935 83.2715 118.023C81.748 117.112 80.5566 115.816 79.6973 114.137C78.8509 112.457 78.4212 110.445 78.4082 108.102V89H86.7285V106.617C86.7415 108.388 87.2168 109.788 88.1543 110.816C89.0918 111.845 90.3483 112.359 91.9238 112.359C92.9264 112.359 93.8639 112.132 94.7363 111.676C95.6087 111.207 96.3118 110.517 96.8457 109.605C97.3926 108.694 97.6595 107.568 97.6465 106.227ZM120.942 101.656V119H112.622V89H120.552V94.293H120.903C121.567 92.5482 122.681 91.168 124.243 90.1523C125.806 89.1237 127.7 88.6094 129.927 88.6094C132.01 88.6094 133.826 89.0651 135.376 89.9766C136.925 90.888 138.13 92.1901 138.989 93.8828C139.849 95.5625 140.278 97.5677 140.278 99.8984V119H131.958V101.383C131.971 99.5469 131.502 98.1146 130.552 97.0859C129.601 96.0443 128.293 95.5234 126.626 95.5234C125.506 95.5234 124.517 95.7643 123.657 96.2461C122.811 96.7279 122.147 97.431 121.665 98.3555C121.196 99.2669 120.955 100.367 120.942 101.656ZM162.793 89V95.25H144.727V89H162.793ZM148.828 81.8125H157.148V109.781C157.148 110.549 157.266 111.148 157.5 111.578C157.734 111.995 158.06 112.288 158.477 112.457C158.906 112.626 159.401 112.711 159.961 112.711C160.352 112.711 160.742 112.678 161.133 112.613C161.523 112.535 161.823 112.477 162.031 112.437L163.34 118.629C162.923 118.759 162.337 118.909 161.582 119.078C160.827 119.26 159.909 119.371 158.828 119.41C156.823 119.488 155.065 119.221 153.555 118.609C152.057 117.997 150.892 117.047 150.059 115.758C149.225 114.469 148.815 112.841 148.828 110.875V81.8125ZM168.213 119V89H176.279V94.2344H176.592C177.139 92.3724 178.057 90.9661 179.346 90.0156C180.635 89.0521 182.119 88.5703 183.799 88.5703C184.215 88.5703 184.665 88.5964 185.146 88.6484C185.628 88.7005 186.051 88.7721 186.416 88.8633V96.2461C186.025 96.1289 185.485 96.0247 184.795 95.9336C184.105 95.8424 183.473 95.7969 182.9 95.7969C181.676 95.7969 180.583 96.0638 179.619 96.5977C178.669 97.1185 177.913 97.8477 177.354 98.7852C176.807 99.7227 176.533 100.803 176.533 102.027V119H168.213ZM190.718 119V89H199.038V119H190.718ZM194.897 85.1328C193.66 85.1328 192.599 84.7227 191.714 83.9023C190.841 83.069 190.405 82.0729 190.405 80.9141C190.405 79.7682 190.841 78.7852 191.714 77.9648C192.599 77.1315 193.66 76.7148 194.897 76.7148C196.134 76.7148 197.189 77.1315 198.062 77.9648C198.947 78.7852 199.39 79.7682 199.39 80.9141C199.39 82.0729 198.947 83.069 198.062 83.9023C197.189 84.7227 196.134 85.1328 194.897 85.1328ZM219.375 119.586C216.289 119.586 213.633 118.961 211.406 117.711C209.193 116.448 207.487 114.664 206.289 112.359C205.091 110.042 204.492 107.301 204.492 104.137C204.492 101.051 205.091 98.3424 206.289 96.0117C207.487 93.681 209.173 91.8646 211.348 90.5625C213.535 89.2604 216.1 88.6094 219.043 88.6094C221.022 88.6094 222.865 88.9284 224.57 89.5664C226.289 90.1914 227.786 91.1354 229.063 92.3984C230.352 93.6615 231.354 95.25 232.07 97.1641C232.786 99.0651 233.145 101.292 233.145 103.844V106.129H207.813V100.973H225.313C225.313 99.7747 225.052 98.7135 224.531 97.7891C224.01 96.8646 223.288 96.1419 222.363 95.6211C221.452 95.0872 220.391 94.8203 219.18 94.8203C217.917 94.8203 216.797 95.1133 215.82 95.6992C214.857 96.2721 214.102 97.0469 213.555 98.0234C213.008 98.987 212.728 100.061 212.715 101.246V106.148C212.715 107.633 212.988 108.915 213.535 109.996C214.095 111.077 214.883 111.91 215.898 112.496C216.914 113.082 218.118 113.375 219.512 113.375C220.436 113.375 221.283 113.245 222.051 112.984C222.819 112.724 223.477 112.333 224.023 111.812C224.57 111.292 224.987 110.654 225.273 109.898L232.969 110.406C232.578 112.255 231.777 113.87 230.566 115.25C229.368 116.617 227.819 117.685 225.918 118.453C224.03 119.208 221.849 119.586 219.375 119.586ZM263.535 97.5547L255.918 98.0234C255.788 97.3724 255.508 96.7865 255.078 96.2656C254.648 95.7318 254.082 95.3086 253.379 94.9961C252.689 94.6706 251.862 94.5078 250.898 94.5078C249.609 94.5078 248.522 94.7812 247.637 95.3281C246.751 95.862 246.309 96.5781 246.309 97.4766C246.309 98.1927 246.595 98.7982 247.168 99.293C247.741 99.7878 248.724 100.185 250.117 100.484L255.547 101.578C258.464 102.177 260.638 103.141 262.07 104.469C263.503 105.797 264.219 107.542 264.219 109.703C264.219 111.669 263.639 113.395 262.48 114.879C261.335 116.363 259.759 117.522 257.754 118.355C255.762 119.176 253.464 119.586 250.859 119.586C246.888 119.586 243.724 118.759 241.367 117.105C239.023 115.439 237.65 113.173 237.246 110.309L245.43 109.879C245.677 111.09 246.276 112.014 247.227 112.652C248.177 113.277 249.395 113.59 250.879 113.59C252.337 113.59 253.509 113.31 254.395 112.75C255.293 112.177 255.749 111.441 255.762 110.543C255.749 109.788 255.43 109.169 254.805 108.688C254.18 108.193 253.216 107.815 251.914 107.555L246.719 106.52C243.789 105.934 241.608 104.918 240.176 103.473C238.757 102.027 238.047 100.185 238.047 97.9453C238.047 96.0182 238.568 94.3581 239.609 92.9648C240.664 91.5716 242.142 90.4974 244.043 89.7422C245.957 88.987 248.197 88.6094 250.762 88.6094C254.551 88.6094 257.533 89.4102 259.707 91.0117C261.895 92.6133 263.171 94.7943 263.535 97.5547Z" fill="#002913"/>
</svg>
