<svg width="364" height="132" viewBox="0 0 364 132" fill="none" xmlns="http://www.w3.org/2000/svg">
<path d="M3.24219 53V46.9062L17.4805 33.7227C18.6914 32.5508 19.707 31.4961 20.5273 30.5586C21.3607 29.6211 21.9922 28.7031 22.4219 27.8047C22.8516 26.8932 23.0664 25.9102 23.0664 24.8555C23.0664 23.6836 22.7995 22.6745 22.2656 21.8281C21.7318 20.9687 21.0026 20.3112 20.0781 19.8555C19.1536 19.3867 18.1055 19.1523 16.9336 19.1523C15.7096 19.1523 14.6419 19.3997 13.7305 19.8945C12.819 20.3893 12.1159 21.099 11.6211 22.0234C11.1263 22.9479 10.8789 24.0482 10.8789 25.3242H2.85156C2.85156 22.707 3.44401 20.4349 4.62891 18.5078C5.8138 16.5807 7.47396 15.0898 9.60938 14.0352C11.7448 12.9805 14.2057 12.4531 16.9922 12.4531C19.8568 12.4531 22.3503 12.9609 24.4727 13.9766C26.6081 14.9792 28.2682 16.3724 29.4531 18.1562C30.638 19.9401 31.2305 21.9844 31.2305 24.2891C31.2305 25.7995 30.931 27.2904 30.332 28.7617C29.7461 30.2331 28.6979 31.8672 27.1875 33.6641C25.6771 35.4479 23.5482 37.5898 20.8008 40.0898L14.9609 45.8125V46.0859H31.7578V53H3.24219ZM52.8076 53.5469C49.7998 53.5469 47.124 53.0586 44.7803 52.082C42.4495 51.0924 40.6201 49.7448 39.292 48.0391C37.9639 46.3333 37.2998 44.3997 37.2998 42.2383C37.2998 40.5716 37.6774 39.0417 38.4326 37.6484C39.2008 36.2422 40.2425 35.0768 41.5576 34.1523C42.8727 33.2148 44.3441 32.6159 45.9717 32.3555V32.082C43.8363 31.6523 42.1045 30.6172 40.7764 28.9766C39.4482 27.3229 38.7842 25.4023 38.7842 23.2148C38.7842 21.1445 39.3896 19.3021 40.6006 17.6875C41.8115 16.0599 43.4717 14.7839 45.5811 13.8594C47.7035 12.9219 50.1123 12.4531 52.8076 12.4531C55.5029 12.4531 57.9053 12.9219 60.0146 13.8594C62.137 14.7969 63.8037 16.0794 65.0147 17.707C66.2256 19.3216 66.8376 21.1576 66.8506 23.2148C66.8376 25.4154 66.1605 27.3359 64.8193 28.9766C63.4782 30.6172 61.7594 31.6523 59.6631 32.082V32.3555C61.2646 32.6159 62.7165 33.2148 64.0186 34.1523C65.3337 35.0768 66.3753 36.2422 67.1436 37.6484C67.9248 39.0417 68.3219 40.5716 68.335 42.2383C68.3219 44.3997 67.6514 46.3333 66.3232 48.0391C64.9951 49.7448 63.1592 51.0924 60.8154 52.082C58.4847 53.0586 55.8154 53.5469 52.8076 53.5469ZM52.8076 47.3359C54.1488 47.3359 55.3206 47.0951 56.3232 46.6133C57.3258 46.1185 58.1071 45.4414 58.667 44.582C59.2399 43.7096 59.5264 42.707 59.5264 41.5742C59.5264 40.4154 59.2334 39.3932 58.6475 38.5078C58.0615 37.6094 57.2673 36.9063 56.2646 36.3984C55.262 35.8776 54.1097 35.6172 52.8076 35.6172C51.5186 35.6172 50.3662 35.8776 49.3506 36.3984C48.335 36.9063 47.5342 37.6094 46.9482 38.5078C46.3753 39.3932 46.0889 40.4154 46.0889 41.5742C46.0889 42.707 46.3688 43.7096 46.9287 44.582C47.4886 45.4414 48.2764 46.1185 49.292 46.6133C50.3076 47.0951 51.4795 47.3359 52.8076 47.3359ZM52.8076 29.4648C53.9274 29.4648 54.9235 29.237 55.7959 28.7812C56.6683 28.3255 57.3519 27.694 57.8467 26.8867C58.3415 26.0794 58.5889 25.1484 58.5889 24.0937C58.5889 23.0521 58.3415 22.1406 57.8467 21.3594C57.3519 20.5651 56.6748 19.9466 55.8154 19.5039C54.9561 19.0482 53.9535 18.8203 52.8076 18.8203C51.6748 18.8203 50.6722 19.0482 49.7998 19.5039C48.9274 19.9466 48.2438 20.5651 47.749 21.3594C47.2673 22.1406 47.0264 23.0521 47.0264 24.0937C47.0264 25.1484 47.2738 26.0794 47.7686 26.8867C48.2633 27.694 48.9469 28.3255 49.8193 28.7812C50.6917 29.237 51.6878 29.4648 52.8076 29.4648ZM86.2012 46.9062V19.25H93.1934V46.9062H86.2012ZM75.8691 36.5742V29.582H103.525V36.5742H75.8691ZM124.595 53V13H140.376C143.41 13 145.994 13.5794 148.13 14.7383C150.265 15.8841 151.893 17.4792 153.013 19.5234C154.146 21.5547 154.712 23.8984 154.712 26.5547C154.712 29.2109 154.139 31.5547 152.993 33.5859C151.847 35.6172 150.187 37.1992 148.013 38.332C145.851 39.4648 143.234 40.0312 140.161 40.0312H130.103V33.2539H138.794C140.422 33.2539 141.763 32.974 142.817 32.4141C143.885 31.8411 144.679 31.0534 145.2 30.0508C145.734 29.0352 146.001 27.8698 146.001 26.5547C146.001 25.2266 145.734 24.0677 145.2 23.0781C144.679 22.0755 143.885 21.3008 142.817 20.7539C141.75 20.194 140.396 19.9141 138.755 19.9141H133.052V53H124.595ZM167.798 53.5664C165.884 53.5664 164.178 53.2344 162.681 52.5703C161.183 51.8932 159.998 50.8971 159.126 49.582C158.267 48.2539 157.837 46.6003 157.837 44.6211C157.837 42.9544 158.143 41.5547 158.755 40.4219C159.367 39.2891 160.2 38.3776 161.255 37.6875C162.31 36.9974 163.507 36.4766 164.849 36.125C166.203 35.7734 167.622 35.526 169.106 35.3828C170.851 35.2005 172.257 35.0312 173.325 34.875C174.393 34.7057 175.168 34.4583 175.649 34.1328C176.131 33.8073 176.372 33.3255 176.372 32.6875V32.5703C176.372 31.3333 175.981 30.3763 175.2 29.6992C174.432 29.0221 173.338 28.6836 171.919 28.6836C170.422 28.6836 169.23 29.0156 168.345 29.6797C167.459 30.3307 166.873 31.151 166.587 32.1406L158.892 31.5156C159.282 29.6927 160.05 28.1172 161.196 26.7891C162.342 25.4479 163.82 24.4193 165.63 23.7031C167.453 22.974 169.562 22.6094 171.958 22.6094C173.625 22.6094 175.22 22.8047 176.743 23.1953C178.28 23.5859 179.64 24.1914 180.825 25.0117C182.023 25.832 182.967 26.8867 183.657 28.1758C184.347 29.4518 184.692 30.9818 184.692 32.7656V53H176.802V48.8398H176.567C176.086 49.7773 175.441 50.6042 174.634 51.3203C173.826 52.0234 172.856 52.5768 171.724 52.9805C170.591 53.3711 169.282 53.5664 167.798 53.5664ZM170.181 47.8242C171.405 47.8242 172.485 47.5833 173.423 47.1016C174.36 46.6068 175.096 45.9427 175.63 45.1094C176.164 44.276 176.431 43.332 176.431 42.2773V39.0938C176.17 39.263 175.812 39.4193 175.356 39.5625C174.914 39.6927 174.412 39.8164 173.853 39.9336C173.293 40.0378 172.733 40.1354 172.173 40.2266C171.613 40.3047 171.105 40.3763 170.649 40.4414C169.673 40.5846 168.82 40.8125 168.091 41.125C167.362 41.4375 166.795 41.8607 166.392 42.3945C165.988 42.9154 165.786 43.5664 165.786 44.3477C165.786 45.4805 166.196 46.3464 167.017 46.9453C167.85 47.5312 168.905 47.8242 170.181 47.8242ZM195.21 64.25C194.155 64.25 193.166 64.1654 192.241 63.9961C191.33 63.8398 190.575 63.638 189.976 63.3906L191.851 57.1797C192.827 57.4792 193.706 57.6419 194.487 57.668C195.282 57.694 195.965 57.5117 196.538 57.1211C197.124 56.7305 197.599 56.0664 197.964 55.1289L198.452 53.8594L187.69 23H196.44L202.651 45.0312H202.964L209.233 23H218.042L206.382 56.2422C205.822 57.8568 205.06 59.263 204.097 60.4609C203.146 61.6719 201.942 62.6029 200.483 63.2539C199.025 63.918 197.267 64.25 195.21 64.25ZM222.3 53V23H230.229V28.293H230.581C231.206 26.5352 232.248 25.1484 233.706 24.1328C235.164 23.1172 236.909 22.6094 238.94 22.6094C240.998 22.6094 242.749 23.1237 244.194 24.1523C245.64 25.168 246.603 26.5482 247.085 28.293H247.397C248.009 26.5742 249.116 25.2005 250.718 24.1719C252.332 23.1302 254.24 22.6094 256.44 22.6094C259.24 22.6094 261.512 23.5013 263.257 25.2852C265.015 27.056 265.894 29.569 265.894 32.8242V53H257.593V34.4648C257.593 32.7982 257.15 31.5482 256.265 30.7148C255.379 29.8815 254.272 29.4648 252.944 29.4648C251.434 29.4648 250.256 29.9466 249.409 30.9102C248.563 31.8607 248.14 33.1172 248.14 34.6797V53H240.073V34.2891C240.073 32.8177 239.65 31.6458 238.804 30.7734C237.97 29.901 236.87 29.4648 235.503 29.4648C234.578 29.4648 233.745 29.6992 233.003 30.168C232.274 30.6237 231.694 31.2682 231.265 32.1016C230.835 32.9219 230.62 33.8854 230.62 34.9922V53H222.3ZM286.138 53.5859C283.052 53.5859 280.396 52.9609 278.169 51.7109C275.955 50.4479 274.25 48.6641 273.052 46.3594C271.854 44.0417 271.255 41.3008 271.255 38.1367C271.255 35.0508 271.854 32.3424 273.052 30.0117C274.25 27.681 275.936 25.8646 278.11 24.5625C280.298 23.2604 282.863 22.6094 285.806 22.6094C287.785 22.6094 289.627 22.9284 291.333 23.5664C293.052 24.1914 294.549 25.1354 295.825 26.3984C297.114 27.6615 298.117 29.25 298.833 31.1641C299.549 33.0651 299.907 35.2917 299.907 37.8437V40.1289H274.575V34.9727H292.075C292.075 33.7747 291.815 32.7135 291.294 31.7891C290.773 30.8646 290.05 30.1419 289.126 29.6211C288.215 29.0872 287.153 28.8203 285.942 28.8203C284.679 28.8203 283.56 29.1133 282.583 29.6992C281.619 30.2721 280.864 31.0469 280.317 32.0234C279.771 32.987 279.491 34.0612 279.478 35.2461V40.1484C279.478 41.6328 279.751 42.9154 280.298 43.9961C280.858 45.0768 281.646 45.9102 282.661 46.4961C283.677 47.082 284.881 47.375 286.274 47.375C287.199 47.375 288.045 47.2448 288.813 46.9844C289.582 46.724 290.239 46.3333 290.786 45.8125C291.333 45.2917 291.75 44.6536 292.036 43.8984L299.731 44.4062C299.341 46.2552 298.54 47.8698 297.329 49.25C296.131 50.6172 294.582 51.6849 292.681 52.4531C290.793 53.2083 288.612 53.5859 286.138 53.5859ZM313.657 35.6563V53H305.337V23H313.267V28.293H313.618C314.282 26.5482 315.396 25.168 316.958 24.1523C318.521 23.1237 320.415 22.6094 322.642 22.6094C324.725 22.6094 326.541 23.0651 328.091 23.9766C329.64 24.888 330.845 26.1901 331.704 27.8828C332.563 29.5625 332.993 31.5677 332.993 33.8984V53H324.673V35.3828C324.686 33.5469 324.217 32.1146 323.267 31.0859C322.316 30.0443 321.007 29.5234 319.341 29.5234C318.221 29.5234 317.231 29.7643 316.372 30.2461C315.526 30.7279 314.862 31.431 314.38 32.3555C313.911 33.2669 313.67 34.3672 313.657 35.6563ZM355.508 23V29.25H337.441V23H355.508ZM341.543 15.8125H349.863V43.7812C349.863 44.5495 349.98 45.1484 350.215 45.5781C350.449 45.9948 350.775 46.2878 351.191 46.457C351.621 46.6263 352.116 46.7109 352.676 46.7109C353.066 46.7109 353.457 46.6784 353.848 46.6133C354.238 46.5352 354.538 46.4766 354.746 46.4375L356.055 52.6289C355.638 52.7591 355.052 52.9089 354.297 53.0781C353.542 53.2604 352.624 53.3711 351.543 53.4102C349.538 53.4883 347.78 53.2214 346.27 52.6094C344.772 51.9974 343.607 51.0469 342.773 49.7578C341.94 48.4687 341.53 46.8411 341.543 44.875V15.8125ZM3.47656 79H13.9062L24.9219 105.875H25.3906L36.4062 79H46.8359V119H38.6328V92.9648H38.3008L27.9492 118.805H22.3633L12.0117 92.8672H11.6797V119H3.47656V79ZM67.3193 119.586C64.2334 119.586 61.5771 118.961 59.3506 117.711C57.137 116.448 55.4313 114.664 54.2334 112.359C53.0355 110.042 52.4365 107.301 52.4365 104.137C52.4365 101.051 53.0355 98.3424 54.2334 96.0117C55.4313 93.681 57.1175 91.8646 59.292 90.5625C61.4795 89.2604 64.0446 88.6094 66.9873 88.6094C68.9665 88.6094 70.8089 88.9284 72.5146 89.5664C74.2334 90.1914 75.7308 91.1354 77.0068 92.3984C78.2959 93.6615 79.2985 95.25 80.0146 97.1641C80.7308 99.0651 81.0889 101.292 81.0889 103.844V106.129H55.7568V100.973H73.2568C73.2568 99.7747 72.9964 98.7135 72.4756 97.7891C71.9548 96.8646 71.2321 96.1419 70.3076 95.6211C69.3962 95.0872 68.335 94.8203 67.124 94.8203C65.861 94.8203 64.7412 95.1133 63.7646 95.6992C62.8011 96.2721 62.0459 97.0469 61.499 98.0234C60.9521 98.987 60.6722 100.061 60.6592 101.246V106.148C60.6592 107.633 60.9326 108.915 61.4795 109.996C62.0394 111.077 62.8271 111.91 63.8428 112.496C64.8584 113.082 66.0628 113.375 67.4561 113.375C68.3805 113.375 69.2269 113.245 69.9951 112.984C70.7633 112.724 71.4209 112.333 71.9678 111.812C72.5146 111.292 72.9313 110.654 73.2178 109.898L80.9131 110.406C80.5225 112.255 79.7217 113.87 78.5107 115.25C77.3128 116.617 75.7633 117.685 73.8623 118.453C71.9743 119.208 69.7933 119.586 67.3193 119.586ZM102.476 89V95.25H84.4092V89H102.476ZM88.5107 81.8125H96.8311V109.781C96.8311 110.549 96.9482 111.148 97.1826 111.578C97.417 111.995 97.7425 112.288 98.1592 112.457C98.5889 112.626 99.0837 112.711 99.6436 112.711C100.034 112.711 100.425 112.678 100.815 112.613C101.206 112.535 101.506 112.477 101.714 112.437L103.022 118.629C102.606 118.759 102.02 118.909 101.265 119.078C100.509 119.26 99.5915 119.371 98.5107 119.41C96.5055 119.488 94.7477 119.221 93.2373 118.609C91.7399 117.997 90.5745 117.047 89.7412 115.758C88.9079 114.469 88.4977 112.841 88.5107 110.875V81.8125ZM116.86 101.656V119H108.54V79H116.626V94.293H116.978C117.655 92.5221 118.748 91.1354 120.259 90.1328C121.769 89.1172 123.664 88.6094 125.942 88.6094C128.026 88.6094 129.842 89.0651 131.392 89.9766C132.954 90.875 134.165 92.1706 135.024 93.8633C135.897 95.543 136.326 97.5547 136.313 99.8984V119H127.993V101.383C128.006 99.5339 127.537 98.0951 126.587 97.0664C125.649 96.0378 124.334 95.5234 122.642 95.5234C121.509 95.5234 120.506 95.7643 119.634 96.2461C118.774 96.7279 118.097 97.431 117.603 98.3555C117.121 99.2669 116.873 100.367 116.86 101.656ZM156.416 119.586C153.382 119.586 150.758 118.941 148.545 117.652C146.344 116.35 144.645 114.54 143.447 112.223C142.249 109.892 141.65 107.19 141.65 104.117C141.65 101.018 142.249 98.3099 143.447 95.9922C144.645 93.6615 146.344 91.8516 148.545 90.5625C150.758 89.2604 153.382 88.6094 156.416 88.6094C159.45 88.6094 162.067 89.2604 164.268 90.5625C166.481 91.8516 168.187 93.6615 169.385 95.9922C170.583 98.3099 171.182 101.018 171.182 104.117C171.182 107.19 170.583 109.892 169.385 112.223C168.187 114.54 166.481 116.35 164.268 117.652C162.067 118.941 159.45 119.586 156.416 119.586ZM156.455 113.141C157.835 113.141 158.988 112.75 159.912 111.969C160.837 111.174 161.533 110.094 162.002 108.727C162.484 107.359 162.725 105.803 162.725 104.059C162.725 102.314 162.484 100.758 162.002 99.3906C161.533 98.0234 160.837 96.9427 159.912 96.1484C158.988 95.3542 157.835 94.957 156.455 94.957C155.062 94.957 153.89 95.3542 152.939 96.1484C152.002 96.9427 151.292 98.0234 150.811 99.3906C150.342 100.758 150.107 102.314 150.107 104.059C150.107 105.803 150.342 107.359 150.811 108.727C151.292 110.094 152.002 111.174 152.939 111.969C153.89 112.75 155.062 113.141 156.455 113.141ZM187.646 119.488C185.368 119.488 183.304 118.902 181.455 117.73C179.619 116.546 178.161 114.807 177.08 112.516C176.012 110.211 175.479 107.385 175.479 104.039C175.479 100.602 176.032 97.7435 177.139 95.4648C178.245 93.1732 179.717 91.4609 181.553 90.3281C183.402 89.1823 185.426 88.6094 187.627 88.6094C189.307 88.6094 190.706 88.8958 191.826 89.4688C192.959 90.0286 193.87 90.7318 194.561 91.5781C195.264 92.4115 195.798 93.2318 196.162 94.0391H196.416V79H204.717V119H196.514V114.195H196.162C195.771 115.029 195.218 115.855 194.502 116.676C193.799 117.483 192.881 118.154 191.748 118.687C190.628 119.221 189.261 119.488 187.646 119.488ZM190.283 112.867C191.624 112.867 192.757 112.503 193.682 111.773C194.619 111.031 195.335 109.996 195.83 108.668C196.338 107.34 196.592 105.784 196.592 104C196.592 102.216 196.344 100.667 195.85 99.3516C195.355 98.0365 194.639 97.0208 193.701 96.3047C192.764 95.5885 191.624 95.2305 190.283 95.2305C188.916 95.2305 187.764 95.6016 186.826 96.3437C185.889 97.0859 185.179 98.1146 184.697 99.4297C184.215 100.745 183.975 102.268 183.975 104C183.975 105.745 184.215 107.288 184.697 108.629C185.192 109.957 185.902 110.999 186.826 111.754C187.764 112.496 188.916 112.867 190.283 112.867ZM236.519 97.5547L228.901 98.0234C228.771 97.3724 228.491 96.7865 228.062 96.2656C227.632 95.7318 227.065 95.3086 226.362 94.9961C225.672 94.6706 224.845 94.5078 223.882 94.5078C222.593 94.5078 221.506 94.7812 220.62 95.3281C219.735 95.862 219.292 96.5781 219.292 97.4766C219.292 98.1927 219.578 98.7982 220.151 99.293C220.724 99.7878 221.707 100.185 223.101 100.484L228.53 101.578C231.447 102.177 233.621 103.141 235.054 104.469C236.486 105.797 237.202 107.542 237.202 109.703C237.202 111.669 236.623 113.395 235.464 114.879C234.318 116.363 232.743 117.522 230.737 118.355C228.745 119.176 226.447 119.586 223.843 119.586C219.871 119.586 216.707 118.759 214.351 117.105C212.007 115.439 210.633 113.173 210.229 110.309L218.413 109.879C218.66 111.09 219.259 112.014 220.21 112.652C221.16 113.277 222.378 113.59 223.862 113.59C225.321 113.59 226.493 113.31 227.378 112.75C228.276 112.177 228.732 111.441 228.745 110.543C228.732 109.788 228.413 109.169 227.788 108.688C227.163 108.193 226.2 107.815 224.897 107.555L219.702 106.52C216.772 105.934 214.591 104.918 213.159 103.473C211.74 102.027 211.03 100.185 211.03 97.9453C211.03 96.0182 211.551 94.3581 212.593 92.9648C213.647 91.5716 215.125 90.4974 217.026 89.7422C218.94 88.987 221.18 88.6094 223.745 88.6094C227.534 88.6094 230.516 89.4102 232.69 91.0117C234.878 92.6133 236.154 94.7943 236.519 97.5547Z" fill="#002913"/>
</svg>
