<svg width="394" height="132" viewBox="0 0 394 132" fill="none" xmlns="http://www.w3.org/2000/svg">
<path d="M2.63672 45.9688V39.3086L19.3359 13H25.0781V22.2187H21.6797L11.1523 38.8789V39.1914H34.8828V45.9688H2.63672ZM21.8359 53V43.9375L21.9922 40.9883V13H29.9219V53H21.8359ZM56.2012 53.8789C52.8418 53.8659 49.9512 53.0391 47.5293 51.3984C45.1204 49.7578 43.265 47.3815 41.9629 44.2695C40.6738 41.1576 40.0358 37.4141 40.0488 33.0391C40.0488 28.6771 40.6934 24.9596 41.9824 21.8867C43.2845 18.8138 45.14 16.4766 47.5488 14.875C49.9707 13.2604 52.8548 12.4531 56.2012 12.4531C59.5475 12.4531 62.4251 13.2604 64.834 14.875C67.2559 16.4896 69.1178 18.8333 70.4199 21.9062C71.722 24.9661 72.3665 28.6771 72.3535 33.0391C72.3535 37.4271 71.7025 41.1771 70.4004 44.2891C69.1113 47.401 67.2624 49.7773 64.8535 51.418C62.4447 53.0586 59.5605 53.8789 56.2012 53.8789ZM56.2012 46.8672C58.4928 46.8672 60.3223 45.7148 61.6895 43.4102C63.0566 41.1055 63.7337 37.6484 63.7207 33.0391C63.7207 30.0052 63.4082 27.4792 62.7832 25.4609C62.1712 23.4427 61.2988 21.9258 60.166 20.9102C59.0462 19.8945 57.7246 19.3867 56.2012 19.3867C53.9225 19.3867 52.0996 20.526 50.7324 22.8047C49.3652 25.0833 48.6751 28.4948 48.6621 33.0391C48.6621 36.112 48.9681 38.6771 49.5801 40.7344C50.2051 42.7786 51.084 44.3151 52.2168 45.3437C53.3496 46.3594 54.6777 46.8672 56.2012 46.8672ZM90.3369 46.9062V19.25H97.3291V46.9062H90.3369ZM80.0049 36.5742V29.582H107.661V36.5742H80.0049ZM38.7695 93.0039H30.2148C30.0586 91.8971 29.7396 90.9141 29.2578 90.0547C28.776 89.1823 28.1576 88.4401 27.4023 87.8281C26.6471 87.2161 25.7747 86.7474 24.7852 86.4219C23.8086 86.0964 22.7474 85.9336 21.6016 85.9336C19.5313 85.9336 17.7279 86.4479 16.1914 87.4766C14.6549 88.4922 13.4635 89.9766 12.6172 91.9297C11.7708 93.8698 11.3477 96.2266 11.3477 99C11.3477 101.852 11.7708 104.247 12.6172 106.187C13.4766 108.128 14.6745 109.592 16.2109 110.582C17.7474 111.572 19.5247 112.066 21.543 112.066C22.6758 112.066 23.724 111.917 24.6875 111.617C25.6641 111.318 26.5299 110.882 27.2852 110.309C28.0404 109.723 28.6654 109.013 29.1602 108.18C29.668 107.346 30.0195 106.396 30.2148 105.328L38.7695 105.367C38.5482 107.203 37.9948 108.974 37.1094 110.68C36.237 112.372 35.0586 113.889 33.5742 115.23C32.1029 116.559 30.3451 117.613 28.3008 118.395C26.2695 119.163 23.9714 119.547 21.4063 119.547C17.8385 119.547 14.6484 118.74 11.8359 117.125C9.03646 115.51 6.82292 113.173 5.19531 110.113C3.58073 107.053 2.77344 103.349 2.77344 99C2.77344 94.638 3.59375 90.9271 5.23438 87.8672C6.875 84.8073 9.10156 82.4766 11.9141 80.875C14.7266 79.2604 17.8906 78.4531 21.4063 78.4531C23.724 78.4531 25.8724 78.7786 27.8516 79.4297C29.8438 80.0807 31.6081 81.0312 33.1445 82.2812C34.681 83.5182 35.931 85.0352 36.8945 86.832C37.8711 88.6289 38.4961 90.6862 38.7695 93.0039ZM63.916 106.227V89H72.2363V119H64.248V113.551H63.9355C63.2585 115.309 62.1322 116.721 60.5566 117.789C58.9941 118.857 57.0866 119.391 54.834 119.391C52.8288 119.391 51.0645 118.935 49.541 118.023C48.0176 117.112 46.8262 115.816 45.9668 114.137C45.1204 112.457 44.6908 110.445 44.6777 108.102V89H52.998V106.617C53.0111 108.388 53.4863 109.788 54.4238 110.816C55.3613 111.845 56.6178 112.359 58.1934 112.359C59.196 112.359 60.1335 112.132 61.0059 111.676C61.8783 111.207 62.5814 110.517 63.1152 109.605C63.6621 108.694 63.929 107.568 63.916 106.227ZM78.8916 119V89H86.958V94.2344H87.2705C87.8174 92.3724 88.7354 90.9661 90.0244 90.0156C91.3135 89.0521 92.7979 88.5703 94.4775 88.5703C94.8942 88.5703 95.3434 88.5964 95.8252 88.6484C96.307 88.7005 96.7301 88.7721 97.0947 88.8633V96.2461C96.7041 96.1289 96.1637 96.0247 95.4736 95.9336C94.7835 95.8424 94.152 95.7969 93.5791 95.7969C92.3551 95.7969 91.2614 96.0638 90.2979 96.5977C89.3473 97.1185 88.5921 97.8477 88.0322 98.7852C87.4854 99.7227 87.2119 100.803 87.2119 102.027V119H78.8916ZM101.396 119V89H109.463V94.2344H109.775C110.322 92.3724 111.24 90.9661 112.529 90.0156C113.818 89.0521 115.303 88.5703 116.982 88.5703C117.399 88.5703 117.848 88.5964 118.33 88.6484C118.812 88.7005 119.235 88.7721 119.6 88.8633V96.2461C119.209 96.1289 118.669 96.0247 117.979 95.9336C117.288 95.8424 116.657 95.7969 116.084 95.7969C114.86 95.7969 113.766 96.0638 112.803 96.5977C111.852 97.1185 111.097 97.8477 110.537 98.7852C109.99 99.7227 109.717 100.803 109.717 102.027V119H101.396ZM136.177 119.586C133.091 119.586 130.435 118.961 128.208 117.711C125.994 116.448 124.289 114.664 123.091 112.359C121.893 110.042 121.294 107.301 121.294 104.137C121.294 101.051 121.893 98.3424 123.091 96.0117C124.289 93.681 125.975 91.8646 128.149 90.5625C130.337 89.2604 132.902 88.6094 135.845 88.6094C137.824 88.6094 139.666 88.9284 141.372 89.5664C143.091 90.1914 144.588 91.1354 145.864 92.3984C147.153 93.6615 148.156 95.25 148.872 97.1641C149.588 99.0651 149.946 101.292 149.946 103.844V106.129H124.614V100.973H142.114C142.114 99.7747 141.854 98.7135 141.333 97.7891C140.812 96.8646 140.09 96.1419 139.165 95.6211C138.254 95.0872 137.192 94.8203 135.981 94.8203C134.718 94.8203 133.599 95.1133 132.622 95.6992C131.659 96.2721 130.903 97.0469 130.356 98.0234C129.81 98.987 129.53 100.061 129.517 101.246V106.148C129.517 107.633 129.79 108.915 130.337 109.996C130.897 111.077 131.685 111.91 132.7 112.496C133.716 113.082 134.92 113.375 136.313 113.375C137.238 113.375 138.084 113.245 138.853 112.984C139.621 112.724 140.278 112.333 140.825 111.812C141.372 111.292 141.789 110.654 142.075 109.898L149.771 110.406C149.38 112.255 148.579 113.87 147.368 115.25C146.17 116.617 144.621 117.685 142.72 118.453C140.832 119.208 138.651 119.586 136.177 119.586ZM163.696 101.656V119H155.376V89H163.306V94.293H163.657C164.321 92.5482 165.435 91.168 166.997 90.1523C168.56 89.1237 170.454 88.6094 172.681 88.6094C174.764 88.6094 176.58 89.0651 178.13 89.9766C179.679 90.888 180.884 92.1901 181.743 93.8828C182.603 95.5625 183.032 97.5677 183.032 99.8984V119H174.712V101.383C174.725 99.5469 174.256 98.1146 173.306 97.0859C172.355 96.0443 171.047 95.5234 169.38 95.5234C168.26 95.5234 167.271 95.7643 166.411 96.2461C165.565 96.7279 164.901 97.431 164.419 98.3555C163.95 99.2669 163.709 100.367 163.696 101.656ZM203.145 119.586C200.072 119.586 197.428 118.935 195.215 117.633C193.014 116.318 191.322 114.495 190.137 112.164C188.965 109.833 188.379 107.151 188.379 104.117C188.379 101.044 188.971 98.349 190.156 96.0312C191.354 93.7005 193.053 91.8841 195.254 90.582C197.454 89.2669 200.072 88.6094 203.105 88.6094C205.723 88.6094 208.014 89.0846 209.98 90.0352C211.947 90.9857 213.503 92.3203 214.648 94.0391C215.794 95.7578 216.426 97.776 216.543 100.094H208.691C208.47 98.5964 207.884 97.3919 206.934 96.4805C205.996 95.556 204.766 95.0937 203.242 95.0937C201.953 95.0937 200.827 95.4453 199.863 96.1484C198.913 96.8385 198.171 97.8477 197.637 99.1758C197.103 100.504 196.836 102.112 196.836 104C196.836 105.914 197.096 107.542 197.617 108.883C198.151 110.224 198.9 111.246 199.863 111.949C200.827 112.652 201.953 113.004 203.242 113.004C204.193 113.004 205.046 112.809 205.801 112.418C206.569 112.027 207.201 111.461 207.695 110.719C208.203 109.964 208.535 109.059 208.691 108.004H216.543C216.413 110.296 215.788 112.314 214.668 114.059C213.561 115.79 212.031 117.145 210.078 118.121C208.125 119.098 205.814 119.586 203.145 119.586ZM221.87 119V89H230.19V119H221.87ZM226.05 85.1328C224.813 85.1328 223.752 84.7227 222.866 83.9023C221.994 83.069 221.558 82.0729 221.558 80.9141C221.558 79.7682 221.994 78.7852 222.866 77.9648C223.752 77.1315 224.813 76.7148 226.05 76.7148C227.287 76.7148 228.341 77.1315 229.214 77.9648C230.099 78.7852 230.542 79.7682 230.542 80.9141C230.542 82.0729 230.099 83.069 229.214 83.9023C228.341 84.7227 227.287 85.1328 226.05 85.1328ZM250.527 119.586C247.441 119.586 244.785 118.961 242.559 117.711C240.345 116.448 238.639 114.664 237.441 112.359C236.243 110.042 235.645 107.301 235.645 104.137C235.645 101.051 236.243 98.3424 237.441 96.0117C238.639 93.681 240.326 91.8646 242.5 90.5625C244.688 89.2604 247.253 88.6094 250.195 88.6094C252.174 88.6094 254.017 88.9284 255.723 89.5664C257.441 90.1914 258.939 91.1354 260.215 92.3984C261.504 93.6615 262.507 95.25 263.223 97.1641C263.939 99.0651 264.297 101.292 264.297 103.844V106.129H238.965V100.973H256.465C256.465 99.7747 256.204 98.7135 255.684 97.7891C255.163 96.8646 254.44 96.1419 253.516 95.6211C252.604 95.0872 251.543 94.8203 250.332 94.8203C249.069 94.8203 247.949 95.1133 246.973 95.6992C246.009 96.2721 245.254 97.0469 244.707 98.0234C244.16 98.987 243.88 100.061 243.867 101.246V106.148C243.867 107.633 244.141 108.915 244.688 109.996C245.247 111.077 246.035 111.91 247.051 112.496C248.066 113.082 249.271 113.375 250.664 113.375C251.589 113.375 252.435 113.245 253.203 112.984C253.971 112.724 254.629 112.333 255.176 111.812C255.723 111.292 256.139 110.654 256.426 109.898L264.121 110.406C263.73 112.255 262.93 113.87 261.719 115.25C260.521 116.617 258.971 117.685 257.07 118.453C255.182 119.208 253.001 119.586 250.527 119.586ZM294.688 97.5547L287.07 98.0234C286.94 97.3724 286.66 96.7865 286.23 96.2656C285.801 95.7318 285.234 95.3086 284.531 94.9961C283.841 94.6706 283.014 94.5078 282.051 94.5078C280.762 94.5078 279.674 94.7812 278.789 95.3281C277.904 95.862 277.461 96.5781 277.461 97.4766C277.461 98.1927 277.747 98.7982 278.32 99.293C278.893 99.7878 279.876 100.185 281.27 100.484L286.699 101.578C289.616 102.177 291.79 103.141 293.223 104.469C294.655 105.797 295.371 107.542 295.371 109.703C295.371 111.669 294.792 113.395 293.633 114.879C292.487 116.363 290.911 117.522 288.906 118.355C286.914 119.176 284.616 119.586 282.012 119.586C278.04 119.586 274.876 118.759 272.52 117.105C270.176 115.439 268.802 113.173 268.398 110.309L276.582 109.879C276.829 111.09 277.428 112.014 278.379 112.652C279.329 113.277 280.547 113.59 282.031 113.59C283.49 113.59 284.661 113.31 285.547 112.75C286.445 112.177 286.901 111.441 286.914 110.543C286.901 109.788 286.582 109.169 285.957 108.688C285.332 108.193 284.368 107.815 283.066 107.555L277.871 106.52C274.941 105.934 272.76 104.918 271.328 103.473C269.909 102.027 269.199 100.185 269.199 97.9453C269.199 96.0182 269.72 94.3581 270.762 92.9648C271.816 91.5716 273.294 90.4974 275.195 89.7422C277.109 88.987 279.349 88.6094 281.914 88.6094C285.703 88.6094 288.685 89.4102 290.859 91.0117C293.047 92.6133 294.323 94.7943 294.688 97.5547Z" fill="#002913"/>
</svg>
