<svg width="19" height="16" viewBox="0 0 19 16" fill="none" xmlns="http://www.w3.org/2000/svg">
<path d="M18.0288 6.67308H5.25962C4.91346 6.67308 4.75962 6.25 4.99038 6.01923L8.68269 2.32692C8.91346 2.09615 8.91346 1.75 8.68269 1.51923L7.83654 0.673077C7.60577 0.442308 7.25962 0.442308 7.02885 0.673077L0.298077 7.44231C0.0673077 7.67308 0.0673077 8.01923 0.298077 8.25L7.02885 14.9808C7.25962 15.2115 7.60577 15.2115 7.83654 14.9808L8.64423 14.1731C8.875 13.9423 8.875 13.5962 8.64423 13.3654L4.95192 9.67308C4.72115 9.40385 4.875 8.98077 5.22115 8.98077H17.9904C18.2981 8.98077 18.5673 8.75 18.5673 8.44231V7.28846C18.5673 6.98077 18.3365 6.67308 18.0288 6.67308Z" fill="#002913"/>
</svg>
