<svg width="20" height="21" viewBox="0 0 20 21" fill="none" xmlns="http://www.w3.org/2000/svg">
<path d="M10 0.0859375C4.5 0.0859375 0 4.58594 0 10.0859C0 15.5859 4.5 20.0859 10 20.0859C15.5 20.0859 20 15.5859 20 10.0859C20 4.58594 15.5 0.0859375 10 0.0859375ZM15.4 7.68594L9.4 13.6859C9.1 13.9859 8.6 13.9859 8.3 13.6859H8.4C8.3 13.6859 8.1 13.5859 8 13.4859L4.7 10.1859C4.4 9.88594 4.4 9.38594 4.7 8.98594C5 8.68594 5.5 8.68594 5.9 8.98594L8.9 11.9859L14.4 6.48594C14.7 6.18594 15.2 6.18594 15.5 6.48594L15.6 6.58594C15.7 6.88594 15.7 7.38594 15.4 7.68594Z" fill="white"/>
</svg>
