<svg width="24" height="24" viewBox="0 0 24 24" fill="none" xmlns="http://www.w3.org/2000/svg">
<mask id="mask0_452_8605" style="mask-type:alpha" maskUnits="userSpaceOnUse" x="0" y="0" width="24" height="24">
<rect width="24" height="24" fill="#D9D9D9"/>
</mask>
<g mask="url(#mask0_452_8605)">
<path d="M10.6002 17.1002L18.2002 9.5002L16.3502 7.6502L10.6002 13.4002L7.7002 10.5002L5.8502 12.3502L10.6002 17.1002ZM12.0002 22.8002C10.5062 22.8002 9.1022 22.5167 7.7882 21.9497C6.4742 21.3827 5.3312 20.6132 4.3592 19.6412C3.3872 18.6692 2.6177 17.5262 2.0507 16.2122C1.4837 14.8982 1.2002 13.4942 1.2002 12.0002C1.2002 10.5019 1.4842 9.09386 2.0522 7.7762C2.6202 6.45836 3.39103 5.31211 4.3647 4.33745C5.33836 3.36261 6.48136 2.59603 7.79369 2.0377C9.10603 1.47936 10.5082 1.2002 12.0002 1.2002C13.4984 1.2002 14.9062 1.47936 16.2237 2.0377C17.5414 2.59603 18.6877 3.3627 19.6627 4.3377C20.6377 5.3127 21.4044 6.4592 21.9627 7.7772C22.521 9.09536 22.8002 10.5037 22.8002 12.0022C22.8002 13.5009 22.521 14.9044 21.9627 16.2127C21.4044 17.521 20.6378 18.662 19.6629 19.6357C18.6883 20.6094 17.542 21.3802 16.2242 21.9482C14.9065 22.5162 13.4985 22.8002 12.0002 22.8002Z" fill="#24EC7F"/>
</g>
</svg>
