<svg width="21" height="21" viewBox="0 0 21 21" fill="none" xmlns="http://www.w3.org/2000/svg">
<path d="M10.5 0.585938C5 0.585938 0.5 5.08594 0.5 10.5859C0.5 16.0859 5 20.5859 10.5 20.5859C16 20.5859 20.5 16.0859 20.5 10.5859C20.5 5.08594 16 0.585938 10.5 0.585938ZM15.9 8.18594L9.9 14.1859C9.6 14.4859 9.1 14.4859 8.8 14.1859H8.9C8.8 14.1859 8.6 14.0859 8.5 13.9859L5.2 10.6859C4.9 10.3859 4.9 9.88594 5.2 9.48594C5.5 9.18594 6 9.18594 6.4 9.48594L9.4 12.4859L14.9 6.98594C15.2 6.68594 15.7 6.68594 16 6.98594L16.1 7.08594C16.2 7.38594 16.2 7.88594 15.9 8.18594Z" fill="#168E4C"/>
</svg>
