<svg width="19" height="16" viewBox="0 0 19 16" fill="none" xmlns="http://www.w3.org/2000/svg">
<g clip-path="url(#clip0_2_2)">
<path d="M0.971201 6.67308H13.7404C14.0865 6.67308 14.2404 6.25 14.0096 6.01923L10.3173 2.32692C10.0865 2.09615 10.0865 1.75 10.3173 1.51923L11.1635 0.673077C11.3942 0.442308 11.7404 0.442308 11.9711 0.673077L18.7019 7.44231C18.9327 7.67308 18.9327 8.01923 18.7019 8.25L11.9711 14.9808C11.7404 15.2115 11.3942 15.2115 11.1635 14.9808L10.3558 14.1731C10.125 13.9423 10.125 13.5962 10.3558 13.3654L14.0481 9.67308C14.2788 9.40385 14.125 8.98077 13.7789 8.98077H1.0096C0.7019 8.98077 0.432699 8.75 0.432699 8.44231V7.28846C0.432699 6.98077 0.663501 6.67308 0.971201 6.67308Z" fill="#002913"/>
</g>
<defs>
<clipPath id="clip0_2_2">
<rect width="19" height="16" fill="white" transform="matrix(-1 0 0 1 19 0)"/>
</clipPath>
</defs>
</svg>
