<svg width="636" height="775" viewBox="0 0 636 775" fill="none" xmlns="http://www.w3.org/2000/svg">
<g opacity="0.5" filter="url(#filter0_f_452_8599)">
<path d="M413.756 306.511C413.756 350.837 374.725 386.771 326.577 386.771C278.43 386.771 239.399 350.837 239.399 306.511C239.399 262.185 278.43 226.251 326.577 226.251C374.725 226.251 413.756 262.185 413.756 306.511Z" fill="#79C80E"/>
<path d="M535.529 411.956C535.529 464.995 492.533 507.991 439.494 507.991C386.456 507.991 343.459 464.995 343.459 411.956C343.459 358.917 386.456 315.921 439.494 315.921C492.533 315.921 535.529 358.917 535.529 411.956Z" fill="#79C80E"/>
<path d="M439.494 221.823L517.87 357.573H361.119L439.494 221.823Z" fill="#D7F4B7"/>
<path d="M404.34 396.636L409.631 553.075L271.505 479.437L404.34 396.636Z" fill="#4E6F5C"/>
<path d="M606.13 291.424L637.415 369.672L721.686 364.145L656.75 418.031L688.035 496.279L616.617 451.335L551.681 505.222L572.479 423.558L501.062 378.614L585.333 373.087L606.13 291.424Z" fill="#06B13D"/>
<path d="M221.686 351.346H378.331V507.991H221.686V351.346Z" fill="#D7F4B7"/>
</g>
<defs>
<filter id="filter0_f_452_8599" x="0.279785" y="0.416992" width="942.813" height="774.065" filterUnits="userSpaceOnUse" color-interpolation-filters="sRGB">
<feFlood flood-opacity="0" result="BackgroundImageFix"/>
<feBlend mode="normal" in="SourceGraphic" in2="BackgroundImageFix" result="shape"/>
<feGaussianBlur stdDeviation="110.703" result="effect1_foregroundBlur_452_8599"/>
</filter>
</defs>
</svg>
