<svg width="39" height="37" viewBox="0 0 39 37" fill="none" xmlns="http://www.w3.org/2000/svg">
<path d="M37.4063 16.2906C38.8547 16.2906 39.4594 14.4297 38.2829 13.5719L20.3813 0.549999C20.1256 0.362696 19.817 0.261719 19.5 0.261719C19.1831 0.261719 18.8744 0.362696 18.6188 0.549999L0.717234 13.5719C-0.459329 14.425 0.145359 16.2906 1.59848 16.2906H4.50005V33.8219H1.12505C0.918796 33.8219 0.750046 33.9906 0.750046 34.1969V36.6344C0.750046 36.8406 0.918796 37.0094 1.12505 37.0094H37.875C38.0813 37.0094 38.25 36.8406 38.25 36.6344V34.1969C38.25 33.9906 38.0813 33.8219 37.875 33.8219H34.5V16.2906H37.4063ZM19.5 3.85469L32.2079 13.0984H6.79223L19.5 3.85469ZM7.87505 16.2906H13.3594V33.8219H7.87505V16.2906ZM16.7344 16.2906H22.2188V33.8219H16.7344V16.2906ZM31.125 33.8219H25.5938V16.2906H31.125V33.8219Z" fill="black"/>
</svg>
