<svg width="40" height="41" viewBox="0 0 40 41" fill="none" xmlns="http://www.w3.org/2000/svg">
<path d="M20 29.3014C16.6667 29.3014 14 27.1681 14 24.6348V15.3014C14 12.7681 16.6667 10.6348 20 10.6348C22.2667 10.6348 25.3333 12.1014 25.3333 15.4348C25.3333 15.8348 25.0667 16.1014 24.6667 16.1014C24.2667 16.1014 24 15.8348 24 15.4348C24 13.0348 21.6 11.9681 20 11.9681C17.4667 11.9681 15.3333 13.4348 15.3333 15.3014V24.6348C15.3333 26.5014 17.4667 27.9681 20 27.9681C21.6 27.9681 24 26.9014 24 24.6348C24 24.2348 24.2667 23.9681 24.6667 23.9681C25.0667 23.9681 25.3333 24.2348 25.3333 24.6348C25.3333 27.5681 22.5333 29.3014 20 29.3014Z" fill="#24EC7E"/>
<path d="M21.3334 18.6351H13.3334C12.9334 18.6351 12.6667 18.3684 12.6667 17.9684C12.6667 17.5684 12.9334 17.3018 13.3334 17.3018H21.3334C21.7334 17.3018 22 17.5684 22 17.9684C22 18.3684 21.7334 18.6351 21.3334 18.6351ZM21.3334 22.6351H13.0667C12.6667 22.6351 12.4 22.3684 12.4 21.9684C12.4 21.5684 12.6667 21.3018 13.0667 21.3018H21.3334C21.7334 21.3018 22 21.5684 22 21.9684C22 22.3684 21.7334 22.6351 21.3334 22.6351Z" fill="#24EC7E"/>
<path d="M20 39.9684C9.33329 39.9684 0.666626 31.3018 0.666626 20.6351C0.666626 9.96842 9.33329 1.30176 20 1.30176C30.6666 1.30176 39.3333 9.96842 39.3333 20.6351C39.3333 31.3018 30.6666 39.9684 20 39.9684ZM20 2.63509C10.1333 2.63509 1.99996 10.7684 1.99996 20.6351C1.99996 30.5018 10.1333 38.6351 20 38.6351C29.8666 38.6351 38 30.5018 38 20.6351C38 10.7684 29.8666 2.63509 20 2.63509Z" fill="#24EC7E"/>
</svg>
