<svg width="40" height="41" viewBox="0 0 40 41" fill="none" xmlns="http://www.w3.org/2000/svg">
<path d="M26.2501 35.6348H29.3751C31.2501 35.6348 32.5001 33.556 32.5001 32.301V30.5285C32.1343 30.3992 31.8177 30.1597 31.5938 29.8429C31.37 29.5261 31.2498 29.1477 31.2501 28.7598V16.8848H31.2326C31.0769 14.1768 29.8916 11.6309 27.9194 9.76881C25.9472 7.90668 23.3375 6.86933 20.6251 6.86933C17.9126 6.86933 15.3029 7.90668 13.3307 9.76881C11.3585 11.6309 10.1732 14.1768 10.0176 16.8848H10.0001V28.7598C10.0001 29.257 9.80251 29.734 9.45088 30.0856C9.09925 30.4372 8.62233 30.6348 8.12505 30.6348C7.62777 30.6348 7.15086 30.4372 6.79923 30.0856C6.44759 29.734 6.25005 29.257 6.25005 28.7598V27.8148C5.15332 27.4266 4.20386 26.708 3.53234 25.758C2.86082 24.808 2.50024 23.6732 2.50024 22.5098C2.50024 21.3464 2.86082 20.2116 3.53234 19.2615C4.20386 18.3115 5.15332 17.5929 6.25005 17.2048V16.8848H7.51505C7.84005 9.92602 13.5863 4.38477 20.6251 4.38477C27.6638 4.38477 33.4088 9.92602 33.7351 16.8848H35V17.8323C36.5075 18.841 37.5 20.5598 37.5 22.5098C37.5 24.4598 36.5075 26.1785 35 27.1873V28.7598C35.0003 29.1477 34.8801 29.5261 34.6563 29.8429C34.4324 30.1597 34.1158 30.3992 33.7501 30.5285V31.8848C33.7501 33.2108 33.2233 34.4826 32.2856 35.4203C31.3479 36.358 30.0761 36.8848 28.7501 36.8848H25.9151C25.6956 37.2648 25.3801 37.5804 25 37.7998C24.62 38.0192 24.1889 38.1348 23.7501 38.1348H20.0001C19.337 38.1348 18.7011 37.8714 18.2323 37.4025C17.7634 36.9337 17.5001 36.2978 17.5001 35.6348C17.5001 34.9717 17.7634 34.3358 18.2323 33.867C18.7011 33.3982 19.337 33.1348 20.0001 33.1348H23.7501C24.4131 33.1348 25.049 33.3982 25.5178 33.867C25.9867 34.3358 26.2501 34.9717 26.2501 35.6348ZM6.25005 26.4635V18.556C5.50153 18.9106 4.86906 19.4704 4.42616 20.1703C3.98326 20.8702 3.74815 21.6815 3.74815 22.5098C3.74815 23.338 3.98326 24.1493 4.42616 24.8492C4.86906 25.5491 5.50153 26.1089 6.25005 26.4635ZM35 25.571C35.7738 24.7835 36.25 23.7023 36.25 22.5098C36.25 21.3173 35.7738 20.2373 35 19.4473V25.5723V25.571ZM33.7501 26.8848V18.1348H32.5001V26.8848H33.7501ZM7.50005 18.1348V26.8848H8.75005V18.1348H7.50005ZM20.0001 34.3848C19.6685 34.3848 19.3506 34.5165 19.1162 34.7509C18.8817 34.9853 18.7501 35.3032 18.7501 35.6348C18.7501 35.9663 18.8817 36.2842 19.1162 36.5187C19.3506 36.7531 19.6685 36.8848 20.0001 36.8848H23.7501C24.0816 36.8848 24.3995 36.7531 24.6339 36.5187C24.8684 36.2842 25.0001 35.9663 25.0001 35.6348C25.0001 35.3032 24.8684 34.9853 24.6339 34.7509C24.3995 34.5165 24.0816 34.3848 23.7501 34.3848H20.0001Z" fill="#24EC7E"/>
</svg>
