<svg width="14" height="19" viewBox="0 0 14 19" fill="none" xmlns="http://www.w3.org/2000/svg">
<path d="M2.00004 18.3333C1.54171 18.3333 1.14935 18.1701 0.822957 17.8437C0.496568 17.5173 0.333374 17.125 0.333374 16.6666V8.33331C0.333374 7.87498 0.496568 7.48262 0.822957 7.15623C1.14935 6.82984 1.54171 6.66665 2.00004 6.66665H2.83337V4.99998C2.83337 3.8472 3.23962 2.86456 4.05212 2.05206C4.86462 1.23956 5.84726 0.833313 7.00004 0.833313C8.15282 0.833313 9.13546 1.23956 9.94796 2.05206C10.7605 2.86456 11.1667 3.8472 11.1667 4.99998V6.66665H12C12.4584 6.66665 12.8507 6.82984 13.1771 7.15623C13.5035 7.48262 13.6667 7.87498 13.6667 8.33331V16.6666C13.6667 17.125 13.5035 17.5173 13.1771 17.8437C12.8507 18.1701 12.4584 18.3333 12 18.3333H2.00004ZM2.00004 16.6666H12V8.33331H2.00004V16.6666ZM7.00004 14.1666C7.45837 14.1666 7.85073 14.0035 8.17712 13.6771C8.50351 13.3507 8.66671 12.9583 8.66671 12.5C8.66671 12.0416 8.50351 11.6493 8.17712 11.3229C7.85073 10.9965 7.45837 10.8333 7.00004 10.8333C6.54171 10.8333 6.14935 10.9965 5.82296 11.3229C5.49657 11.6493 5.33337 12.0416 5.33337 12.5C5.33337 12.9583 5.49657 13.3507 5.82296 13.6771C6.14935 14.0035 6.54171 14.1666 7.00004 14.1666ZM4.50004 6.66665H9.50004V4.99998C9.50004 4.30554 9.25698 3.71526 8.77087 3.22915C8.28476 2.74304 7.69448 2.49998 7.00004 2.49998C6.3056 2.49998 5.71532 2.74304 5.22921 3.22915C4.7431 3.71526 4.50004 4.30554 4.50004 4.99998V6.66665Z" fill="white"/>
</svg>
