<svg width="478" height="361" viewBox="0 0 478 361" fill="none" xmlns="http://www.w3.org/2000/svg">
<path d="M271.851 135.631V161.47L264.647 165.616V185.74L259.696 188.597L247.219 195.802V155.554L264.526 145.572C269.396 142.755 271.851 139.415 271.851 135.631Z" stroke="#8D908E" stroke-width="9.1405" stroke-linecap="round" stroke-linejoin="round"/>
<path d="M39.2334 255.494V335.99C16.3725 313.974 4.9019 290.026 4.8214 264.107V184.939C5.06289 197.819 8.12173 210.215 14.0382 222.088C19.7534 233.679 28.1651 244.828 39.2334 255.494Z" stroke="#8D908E" stroke-width="9.1405" stroke-linecap="round" stroke-linejoin="round"/>
<path d="M385.718 55.48L194.339 5.0091L88.688 65.9848C44.8178 91.3007 18.0528 121.929 8.39334 157.871C5.89797 167.128 4.73086 176.023 4.9321 184.797V184.918C5.13334 197.797 8.19218 210.193 14.1086 222.066C19.8238 233.658 28.2356 244.806 39.3038 255.472C70.9387 266.419 104.868 272.819 141.131 274.751C162.704 275.878 185.122 275.435 208.385 273.342C229.234 271.491 249.076 268.513 267.872 264.367C305.141 256.277 338.386 243.8 367.526 226.976L429.467 191.236L473.176 166.001L385.718 55.48ZM281.999 155.617L271.897 161.453L264.692 165.598L271.897 169.744L282.12 175.66L271.897 181.577L264.692 185.722L259.742 188.58L247.265 195.784L229.717 205.927L212.41 215.908L195.506 225.649L160.651 205.525L90.9419 165.277L177.555 115.288L194.983 125.35L212.289 115.369C221.828 109.855 233.379 107.118 246.983 107.158C260.587 107.158 272.219 109.936 281.798 115.49C291.377 121.004 296.206 127.725 296.247 135.574C296.287 143.422 291.538 150.103 281.999 155.617Z" stroke="#8D908E" stroke-width="9.1405" stroke-linecap="round" stroke-linejoin="round"/>
<path d="M177.519 115.273V195.769L160.615 205.509L90.9055 165.261L177.519 115.273Z" stroke="#8D908E" stroke-width="9.1405" stroke-linecap="round" stroke-linejoin="round"/>
<path d="M194.98 125.335V205.83L177.553 195.769V115.273L194.98 125.335Z" stroke="#8D908E" stroke-width="9.1405" stroke-linecap="round" stroke-linejoin="round"/>
<path d="M271.82 135.546V135.627C271.82 139.41 269.365 142.751 264.495 145.568L247.188 155.55L212.334 135.426L229.64 125.444C234.551 122.587 240.346 121.178 246.987 121.218C253.668 121.218 259.464 122.627 264.374 125.484C269.325 128.342 271.82 131.683 271.82 135.546Z" stroke="#8D908E" stroke-width="9.1405" stroke-linecap="round" stroke-linejoin="round"/>
<path d="M247.188 155.53V195.778L229.64 205.921L212.334 215.902V135.406L247.188 155.53Z" stroke="#8D908E" stroke-width="9.1405" stroke-linecap="round" stroke-linejoin="round"/>
<path d="M296.247 135.596C296.287 143.444 291.538 150.126 281.999 155.64L271.897 161.476V135.556C271.897 131.692 269.402 128.351 264.451 125.494C259.541 122.636 253.745 121.228 247.064 121.228C240.423 121.187 234.628 122.596 229.717 125.454L212.411 135.435V195.807C212.411 195.807 212.33 195.847 212.29 195.888L194.983 205.869V125.373L212.29 115.392C221.829 109.878 233.38 107.141 246.984 107.181C260.588 107.181 272.219 109.959 281.798 115.513C291.377 121.027 296.207 127.748 296.247 135.596Z" stroke="#8D908E" stroke-width="9.1405" stroke-linecap="round" stroke-linejoin="round"/>
<path d="M282.094 175.656L271.871 181.573L264.666 185.718V165.594L271.871 169.74L282.094 175.656Z" stroke="#8D908E" stroke-width="9.1405" stroke-linecap="round" stroke-linejoin="round"/>
<path d="M473.177 165.988V246.484L367.527 307.46C323.657 332.776 270.61 348.231 208.387 353.826C146.164 359.38 89.8161 353.423 39.3049 335.955V255.46C70.9398 266.407 104.869 272.806 141.133 274.738C162.705 275.865 185.124 275.423 208.387 273.33C229.235 271.478 249.078 268.5 267.873 264.355C305.143 256.265 338.388 243.788 367.527 226.964L429.468 191.224L473.177 165.988Z" stroke="#8D908E" stroke-width="9.1405" stroke-linecap="round" stroke-linejoin="round"/>
</svg>
