<svg width="48" height="48" viewBox="0 0 48 48" fill="none" xmlns="http://www.w3.org/2000/svg">
<path d="M41.0973 10.256C39.3257 8.73089 36.2066 7.06882 31.4143 7.79193C29.2823 8.11513 27.3595 8.89849 25.6842 10.1113C23.4908 8.10971 20.5469 6.61523 16.893 6.61523C11.6911 6.61523 7.42689 8.98065 4.88946 13.2766C2.31917 17.6262 1.57193 25.1169 7.92542 31.913C16.6389 41.2323 25.8924 41.3397 26.2825 41.3397C27.2248 41.3397 27.9872 40.5772 27.9917 39.6349C27.996 38.6906 27.2324 37.9214 26.289 37.9127C26.208 37.9116 18.0719 37.7494 10.4289 29.5729C5.36933 24.1605 5.87112 18.3505 7.83994 15.0187C10.27 10.9057 14.1036 10.0424 16.893 10.0424C19.0667 10.0424 20.9052 10.8006 22.3942 11.8863L22.4084 11.8633C22.4084 11.8633 25.1057 13.5911 26.2836 16.672C26.6046 17.3655 26.8226 18.0042 26.907 18.4984C27.1897 20.179 26.9552 21.7107 26.2935 22.4941C25.9823 22.8622 25.5988 23.0342 25.0905 23.0342C24.4791 23.0342 24.0617 22.5182 23.8677 22.2114C23.2871 21.2943 23.0022 19.6115 23.9379 17.6372C24.1592 17.1694 24.3948 16.7267 24.6446 16.3093C24.0759 15.4974 23.2126 14.4895 22.14 13.8967C21.6721 14.6045 21.2295 15.3496 20.8417 16.1691C19.5598 18.872 19.6091 21.8893 20.9709 24.0433C21.9427 25.5793 23.4448 26.4602 25.0905 26.4602C26.598 26.4602 27.9544 25.8379 28.9098 24.7061C30.2442 23.1262 30.746 20.6557 30.2859 17.9264C30.0394 16.4714 29.256 14.5476 27.9566 12.7015C29.131 11.9126 30.4557 11.4032 31.9271 11.1818C34.7013 10.759 37.1017 11.3385 38.8634 12.8537C40.543 14.2967 41.5444 16.501 41.5444 18.7493C41.5444 28.2066 29.3875 32.7239 28.8703 32.9112C27.9807 33.2333 27.5205 34.2161 27.8426 35.1068C28.1648 35.9953 29.1486 36.4588 30.0371 36.1334C35.5843 34.1218 44.9715 28.1967 44.9715 18.7492C44.9715 15.516 43.523 12.3409 41.0973 10.256Z" fill="#168E4C"/>
</svg>
