<svg width="48" height="48" viewBox="0 0 48 48" fill="none" xmlns="http://www.w3.org/2000/svg">
<path d="M42.1896 41.9034C42.12 43.9698 40.5233 45.5034 38.4581 45.5034H14.8317C12.9036 45.5034 10.0245 45.9776 8.42686 44.659C6.73174 43.2601 7.03774 40.1283 6.91294 38.1241L6.2311 27.1902L5.5951 16.9926C5.46886 14.9694 5.46958 13.1326 5.7955 11.1051C6.12814 9.03704 6.59734 6.89936 7.5055 5.00072C7.88662 4.20416 8.50222 2.9984 9.50686 2.9984H37.2741C39.036 2.9984 40.6437 2.61224 41.7285 4.29968C42.8035 5.97224 43.193 8.10272 43.5067 10.033C43.7467 11.5083 43.9836 13.1307 43.8902 14.6312L42.8114 31.9333L42.1896 41.9034C42.0933 43.4497 44.4938 43.4403 44.5896 41.9034L45.6542 24.8302C45.9936 19.388 46.6629 14.0569 45.6933 8.64824C45.1514 5.62568 43.8127 0.598641 39.9283 0.598641H12.6588C11.0268 0.598641 8.8315 0.246081 7.4239 1.25624C5.8495 2.38616 5.07742 4.37504 4.4935 6.1484C3.82702 8.17232 3.4651 10.2961 3.2095 12.4066C2.98366 14.271 3.13558 16.0405 3.25222 17.907L3.92062 28.6249L4.5739 39.0975C4.73758 41.7219 4.63654 44.3919 6.73006 46.3563C8.69518 48.2002 11.3664 47.9034 13.8307 47.9034H38.5898C41.9359 47.9034 44.4799 45.164 44.5898 41.9034C44.6419 40.3546 42.2417 40.3599 42.1896 41.9034Z" fill="#168E4C"/>
<path d="M38.8047 40.5768C38.7171 41.88 37.5315 41.7768 36.5991 41.7768H12.9615C12.1073 41.7768 11.203 41.5977 11.203 40.4944V37.968V18.358C11.203 17.4868 11.5054 16.6996 12.547 16.6996H37.602C38.9062 16.6996 38.8051 18.0093 38.8051 18.9004V38.8524C38.8047 39.4272 38.8047 40.0022 38.8047 40.5768C38.8047 42.1243 41.2047 42.1243 41.2047 40.5768V22.6776V18.7968C41.2047 17.6457 41.1718 16.5144 40.3531 15.5844C38.7598 13.7743 35.7463 14.2994 33.577 14.2994H13.3095C12.2429 14.2994 11.2692 14.3294 10.3306 14.9632C9.10249 15.7927 8.80273 17.1439 8.80273 18.5172V40.5468C8.80273 42.5505 10.4542 44.1768 12.4503 44.1768H37.6047C39.6581 44.1768 41.0734 42.5265 41.2047 40.5768C41.3086 39.0312 38.9079 39.0412 38.8047 40.5768ZM10.0707 11.2648H39.3929C40.9404 11.2648 40.9404 8.86484 39.3929 8.86484H10.0707C8.52289 8.86484 8.52289 11.2648 10.0707 11.2648ZM38.8527 7.19492C40.4002 7.19492 40.4002 4.79492 38.8527 4.79492C37.3051 4.79492 37.3051 7.19492 38.8527 7.19492ZM35.4 7.19492C36.9475 7.19492 36.9475 4.79492 35.4 4.79492C33.8525 4.79492 33.8525 7.19492 35.4 7.19492ZM31.4559 7.19492C33.0034 7.19492 33.0034 4.79492 31.4559 4.79492C29.9083 4.79492 29.9083 7.19492 31.4559 7.19492Z" fill="#168E4C"/>
</svg>
