<svg width="48" height="48" viewBox="0 0 48 48" fill="none" xmlns="http://www.w3.org/2000/svg">
<path d="M48 19.1993C48 18.4793 47.76 17.7593 47.4 17.0393C46.44 15.2393 44.64 14.2793 42.84 14.2793H39.6L37.08 9.1193H39.6C40.32 8.9993 40.8 9.5993 40.8 10.3193V10.4393V12.5993C40.8 13.3193 41.28 13.7993 42 13.7993C42.72 13.7993 43.2 13.3193 43.2 12.5993V10.4393C43.2 10.4393 43.2 10.4393 43.2 10.3193V10.1993C43.08 8.2793 41.52 6.7193 39.6 6.7193H36L34.8 4.1993C34.2 2.9993 33 2.2793 31.68 2.2793C31.2 2.2793 30.72 2.3993 30.12 2.6393L21.72 6.7193H5.28H5.04C2.28 6.5993 0 8.8793 0 11.6393V11.7593V11.8793V40.5593C0 43.4393 2.4 45.8393 5.28 45.8393H42.72C45.6 45.8393 48 43.4393 48 40.5593V19.1993ZM22.2 8.9993L25.44 7.4393L31.08 4.6793C31.2 4.5593 31.32 4.5593 31.56 4.5593C31.92 4.5593 32.28 4.6793 32.52 5.1593L34.32 8.7593L34.44 8.9993L36.96 14.1593H11.52L22.2 8.9993ZM5.28 8.9993H16.8L6.12 14.1593H5.04C3.6 14.2793 2.52 13.0793 2.4 11.7593C2.52 10.1993 3.72 8.9993 5.28 8.9993ZM45.6 40.5593C45.6 42.1193 44.28 43.4393 42.72 43.4393H5.28C3.72 43.4393 2.4 42.1193 2.4 40.5593V15.8393C3.12 16.3193 4.08 16.5593 5.04 16.5593H6.48H6.6H37.68H38.4L43.2 16.6793C44.04 16.7993 44.88 17.3993 45.24 18.1193C45.36 18.3593 45.48 18.7193 45.48 19.0793V23.7593H34.92C32.16 23.7593 29.88 26.0393 29.88 28.7993C29.88 31.5593 32.16 33.8393 34.92 33.8393H45.6V40.5593ZM45.6 31.4393H35.04C33.6 31.4393 32.4 30.2393 32.4 28.7993C32.4 27.3593 33.6 26.1593 35.04 26.1593H45.6V31.4393Z" fill="#168E4C"/>
</svg>
