<svg width="48" height="48" viewBox="0 0 48 48" fill="none" xmlns="http://www.w3.org/2000/svg">
<g clip-path="url(#clip0_935_1625)">
<path d="M2.0179 14.95L2.00768 14.9656L23.2802 27.2475C23.4931 27.3708 23.7348 27.4358 23.9808 27.4359C24.2336 27.4359 24.4818 27.3679 24.6963 27.2398L45.806 15.0526C46.4741 14.6657 46.7029 13.8071 46.3157 13.1388C46.19 12.9215 46.0081 12.7421 45.7924 12.6213L24.7635 0.427001C24.5507 0.303589 24.309 0.238494 24.0629 0.238282C23.788 0.23795 23.5191 0.318568 23.2898 0.470079L2.19711 12.6477C1.52876 13.0316 1.29739 13.8879 1.68139 14.5565C1.76807 14.7075 1.88222 14.8409 2.01795 14.9499L2.0179 14.95ZM24.0579 3.25534L42.3073 13.8383L23.982 24.4185L5.69238 13.8585L24.0579 3.25534ZM45.7924 22.9029L41.8344 20.6076L39.0366 22.2229L42.3075 24.12L23.982 34.7L5.69238 24.1403L8.97034 22.2478L6.17397 20.6333L2.19715 22.9295C1.52881 23.3134 1.29734 24.1697 1.68143 24.838C1.7696 24.9917 1.88618 25.1272 2.02498 25.2373L2.01607 25.2522L23.2804 37.5292C23.4958 37.6539 23.7405 37.719 23.9894 37.7177C24.2383 37.7164 24.4824 37.6487 24.6965 37.5217L45.806 25.3344C46.4741 24.9473 46.7029 24.0888 46.3158 23.4206C46.1897 23.2033 46.0081 23.0238 45.7924 22.9029L45.7924 22.9029ZM45.7924 33.1846L41.8507 30.8986L39.0531 32.5139L42.3075 34.4015L23.982 44.9817L5.69238 34.422L8.95403 32.5386L6.15775 30.9243L2.19715 33.2112C1.52881 33.595 1.29744 34.4514 1.68143 35.1198C1.76861 35.2717 1.88365 35.4059 2.02053 35.5153L2.01082 35.5307L23.2802 47.8107C23.4932 47.934 23.7348 47.9991 23.9809 47.9994C24.2326 47.9996 24.4798 47.9319 24.6964 47.8035L45.806 35.616C46.4741 35.2289 46.7029 34.3702 46.3158 33.7023C46.19 33.485 46.0084 33.3054 45.7924 33.1846Z" fill="#168E4C"/>
</g>
<defs>
<clipPath id="clip0_935_1625">
<rect width="48" height="48" fill="white"/>
</clipPath>
</defs>
</svg>
