<svg width="48" height="48" viewBox="0 0 48 48" fill="none" xmlns="http://www.w3.org/2000/svg">
<g clip-path="url(#clip0_935_1662)">
<path d="M22.3089 0.173629C34.6233 -0.833843 45.6475 7.79561 47.6577 20.0129C49.6679 32.2292 41.9947 43.9507 30.0121 46.962C18.0279 49.9739 5.7447 43.2665 1.76861 31.5429C1.69777 31.3339 1.67604 31.1114 1.70509 30.8926C1.73415 30.6738 1.81322 30.4647 1.93616 30.2814C2.0591 30.0981 2.22261 29.9456 2.41401 29.8357C2.6054 29.7258 2.81954 29.6615 3.03982 29.6477L3.12896 29.6451H28.6249C29.0603 29.6347 29.4833 29.4981 29.8425 29.2518C30.2017 29.0055 30.4816 28.6602 30.6483 28.2578L30.6894 28.1534L34.2915 18.4031C34.3054 18.3666 34.3099 18.3271 34.3046 18.2884C34.2992 18.2497 34.2842 18.2129 34.2609 18.1815C34.243 18.1573 34.2203 18.1368 34.1943 18.1215C34.1683 18.1062 34.1395 18.0963 34.1095 18.0924L34.0642 18.0913L33.9502 18.0961H13.8103C13.4351 18.0988 13.0738 17.9547 12.8036 17.6944C12.5333 17.4342 12.3756 17.0786 12.3642 16.7036C12.3528 16.3286 12.4885 15.9641 12.7424 15.6878C12.9962 15.4116 13.3481 15.2457 13.7227 15.2256L13.8103 15.2229L33.9154 15.2224L33.9682 15.2198C34.4469 15.2022 34.9231 15.296 35.3594 15.4937C35.7957 15.6914 36.1802 15.9877 36.4826 16.3591L36.5644 16.4636C36.8622 16.8624 37.0596 17.327 37.14 17.8181C37.2205 18.3093 37.1815 18.8126 37.0265 19.2855L36.9806 19.4142L33.3874 29.1408C32.6838 31.0819 30.8883 32.4069 28.809 32.5124L28.656 32.5177H5.23779L5.32852 32.7182C9.45072 41.6145 19.3039 46.5305 28.9962 44.2524L29.3127 44.1754C39.8442 41.5285 46.5911 31.2228 44.823 20.4797C43.0544 9.73723 33.3642 2.15218 22.5431 3.03728C11.722 3.92238 3.38637 12.9833 3.37845 23.8714C3.37817 24.2524 3.22655 24.6177 2.95695 24.8869C2.68734 25.1561 2.32183 25.3072 1.94083 25.3069C1.55982 25.3066 1.19454 25.155 0.925327 24.8854C0.656115 24.6158 0.505031 24.2503 0.50531 23.8693C0.51375 11.4874 9.99612 1.1811 22.3089 0.173629Z" fill="#168E4C"/>
<path d="M18.845 22.4336C19.2202 22.4309 19.5815 22.5751 19.8517 22.8353C20.122 23.0955 20.2797 23.4511 20.2911 23.8261C20.3025 24.2011 20.1668 24.5657 19.9129 24.8419C19.6591 25.1181 19.3072 25.284 18.9326 25.3041L18.845 25.3068H2.30191C1.92677 25.3095 1.56544 25.1653 1.29521 24.9051C1.02497 24.6449 0.86727 24.2893 0.855832 23.9143C0.844394 23.5393 0.980124 23.1747 1.234 22.8985C1.48787 22.6223 1.83974 22.4564 2.21435 22.4363L2.30191 22.4336H18.845Z" fill="#168E4C"/>
</g>
<defs>
<clipPath id="clip0_935_1662">
<rect width="48" height="48" fill="white"/>
</clipPath>
</defs>
</svg>
