<svg width="48" height="48" viewBox="0 0 48 48" fill="none" xmlns="http://www.w3.org/2000/svg">
<path d="M6.75 19.5C6.56775 19.5 6.38625 19.5032 6.20508 19.5078C6.13683 19.5029 6.06843 19.5003 6 19.5C4.34316 19.5 3 20.8432 3 22.5C3 24.1568 4.34316 25.5 6 25.5V25.5182C6.24982 25.5063 6.49989 25.5002 6.75 25.5C15.4485 25.5 22.5 32.5515 22.5 41.25C22.5 41.5015 22.4934 41.7514 22.4818 42H22.5C22.5 43.6568 23.8432 45 25.5 45C27.1568 45 28.5 43.6568 28.5 42C28.5 41.931 28.4968 41.8627 28.4922 41.7949C28.4968 41.6138 28.5 41.4322 28.5 41.25C28.5 29.2378 18.7622 19.5 6.75 19.5Z" fill="#168E4C"/>
<path d="M3 40.5C3 41.6935 3.47411 42.8381 4.31802 43.682C5.16193 44.5259 6.30653 45 7.5 45C8.69347 45 9.83807 44.5259 10.682 43.682C11.5259 42.8381 12 41.6935 12 40.5C12 39.3065 11.5259 38.1619 10.682 37.318C9.83807 36.4741 8.69347 36 7.5 36C6.30653 36 5.16193 36.4741 4.31802 37.318C3.47411 38.1619 3 39.3065 3 40.5Z" fill="#168E4C"/>
<path d="M44.9989 41.9565H44.9998C44.9762 20.4374 27.5246 3 6 3C4.34316 3 3 4.34316 3 6C3 7.65684 4.34316 9 6 9C24.2131 9 38.9798 23.7547 38.9998 41.9632H39.0009C39.0008 41.9755 39 41.9876 39 42C39 43.6568 40.3432 45 42 45C43.6568 45 45 43.6568 45 42C45 41.9854 44.9991 41.971 44.9989 41.9565Z" fill="#168E4C"/>
</svg>
