<svg width="48" height="48" viewBox="0 0 48 48" fill="none" xmlns="http://www.w3.org/2000/svg">
<path d="M34.4313 10.957H13.5661C12.8453 10.957 12.262 11.5403 12.262 12.2611C12.262 12.9819 12.8452 13.5652 13.5661 13.5652H34.4313C35.1521 13.5652 35.7379 12.982 35.7379 12.2611C35.7379 11.5403 35.1521 10.957 34.4313 10.957Z" fill="#168E4C"/>
<path d="M34.4313 18.7852H13.5661C12.8453 18.7852 12.262 19.3659 12.262 20.0893C12.262 20.8076 12.8452 21.3934 13.5661 21.3934H34.4313C35.1521 21.3934 35.7354 20.8076 35.7354 20.0893C35.7354 19.3659 35.1521 18.7852 34.4313 18.7852Z" fill="#168E4C"/>
<path d="M34.4313 26.6074H13.5661C12.8453 26.6074 12.262 27.1907 12.262 27.9115C12.262 28.6324 12.8452 29.2156 13.5661 29.2156H34.4313C35.1521 29.2156 35.7354 28.6324 35.7354 27.9115C35.7354 27.1907 35.1521 26.6074 34.4313 26.6074Z" fill="#168E4C"/>
<path d="M23.9987 34.4316H13.5661C12.8453 34.4316 12.262 35.0149 12.262 35.7357C12.262 36.4566 12.8452 37.0424 13.5661 37.0424H23.9987C24.722 37.0424 25.3053 36.4565 25.3053 35.7357C25.3053 35.0149 24.7221 34.4316 23.9987 34.4316Z" fill="#168E4C"/>
<path d="M36.8026 3.13281H11.1949C8.90763 3.13281 7.04578 4.81642 7.04578 6.88205V41.114C7.04578 43.1822 8.90763 44.8658 11.1949 44.8658H27.9135H30.5217H31.4742L40.9543 36.1983V6.88209C40.9543 4.81642 39.0924 3.13281 36.8026 3.13281ZM30.5217 42.2017V38.3455C30.5217 37.6271 31.1049 37.0414 31.8232 37.0414H36.1659L30.5217 42.2017ZM38.3461 34.4307H31.8232C29.6658 34.4307 27.9135 36.1856 27.9135 38.3455V42.2577H11.1949C10.3594 42.2577 9.65391 41.733 9.65391 41.114V6.88209C9.65391 6.26317 10.3594 5.74104 11.1949 5.74104H36.8026C37.638 5.74104 38.3461 6.26317 38.3461 6.88209V34.4307Z" fill="#168E4C"/>
</svg>
