<svg width="18" height="20" viewBox="0 0 18 20" fill="none" xmlns="http://www.w3.org/2000/svg">
<path d="M2 20C1.45 20 0.979167 19.8042 0.5875 19.4125C0.195833 19.0208 0 18.55 0 18V4C0 3.45 0.195833 2.97917 0.5875 2.5875C0.979167 2.19583 1.45 2 2 2H6.2C6.43333 1.4 6.8 0.916667 7.3 0.55C7.8 0.183333 8.36667 0 9 0C9.63333 0 10.2 0.183333 10.7 0.55C11.2 0.916667 11.5667 1.4 11.8 2H16C16.55 2 17.0208 2.19583 17.4125 2.5875C17.8042 2.97917 18 3.45 18 4V18C18 18.55 17.8042 19.0208 17.4125 19.4125C17.0208 19.8042 16.55 20 16 20H2ZM9 3.25C9.21667 3.25 9.39583 3.17917 9.5375 3.0375C9.67917 2.89583 9.75 2.71667 9.75 2.5C9.75 2.28333 9.67917 2.10417 9.5375 1.9625C9.39583 1.82083 9.21667 1.75 9 1.75C8.78333 1.75 8.60417 1.82083 8.4625 1.9625C8.32083 2.10417 8.25 2.28333 8.25 2.5C8.25 2.71667 8.32083 2.89583 8.4625 3.0375C8.60417 3.17917 8.78333 3.25 9 3.25ZM9 12C9.96667 12 10.7917 11.6583 11.475 10.975C12.1583 10.2917 12.5 9.46667 12.5 8.5C12.5 7.53333 12.1583 6.70833 11.475 6.025C10.7917 5.34167 9.96667 5 9 5C8.03333 5 7.20833 5.34167 6.525 6.025C5.84167 6.70833 5.5 7.53333 5.5 8.5C5.5 9.46667 5.84167 10.2917 6.525 10.975C7.20833 11.6583 8.03333 12 9 12ZM2 18H16V16.85C15.1 15.9667 14.0542 15.2708 12.8625 14.7625C11.6708 14.2542 10.3833 14 9 14C7.61667 14 6.32917 14.2542 5.1375 14.7625C3.94583 15.2708 2.9 15.9667 2 16.85V18Z" fill="white"/>
</svg>
