<svg width="21" height="18" viewBox="0 0 21 18" fill="none" xmlns="http://www.w3.org/2000/svg">
<path d="M14.9 18L14.6 16.5C14.4 16.4167 14.2125 16.3292 14.0375 16.2375C13.8625 16.1458 13.6833 16.0333 13.5 15.9L12.05 16.35L11.05 14.65L12.2 13.65C12.1667 13.4333 12.15 13.2167 12.15 13C12.15 12.7833 12.1667 12.5667 12.2 12.35L11.05 11.35L12.05 9.65L13.5 10.1C13.6833 9.96667 13.8625 9.85417 14.0375 9.7625C14.2125 9.67083 14.4 9.58333 14.6 9.5L14.9 8H16.9L17.2 9.5C17.4 9.58333 17.5875 9.67083 17.7625 9.7625C17.9375 9.85417 18.1167 9.96667 18.3 10.1L19.75 9.65L20.75 11.35L19.6 12.35C19.6333 12.5667 19.65 12.7833 19.65 13C19.65 13.2167 19.6333 13.4333 19.6 13.65L20.75 14.65L19.75 16.35L18.3 15.9C18.1167 16.0333 17.9375 16.1458 17.7625 16.2375C17.5875 16.3292 17.4 16.4167 17.2 16.5L16.9 18H14.9ZM15.9 15C16.45 15 16.9208 14.8042 17.3125 14.4125C17.7042 14.0208 17.9 13.55 17.9 13C17.9 12.45 17.7042 11.9792 17.3125 11.5875C16.9208 11.1958 16.45 11 15.9 11C15.35 11 14.8792 11.1958 14.4875 11.5875C14.0958 11.9792 13.9 12.45 13.9 13C13.9 13.55 14.0958 14.0208 14.4875 14.4125C14.8792 14.8042 15.35 15 15.9 15ZM2 16C1.45 16 0.979167 15.8042 0.5875 15.4125C0.195833 15.0208 0 14.55 0 14V2C0 1.45 0.195833 0.979167 0.5875 0.5875C0.979167 0.195833 1.45 0 2 0H18C18.55 0 19.0208 0.195833 19.4125 0.5875C19.8042 0.979167 20 1.45 20 2V7.325C19.7 7.10833 19.3833 6.91667 19.05 6.75C18.7167 6.58333 18.3667 6.44167 18 6.325V4H2V8H11C10.35 8.63333 9.8375 9.37917 9.4625 10.2375C9.0875 11.0958 8.9 12.0167 8.9 13C8.9 13.5333 8.95833 14.0542 9.075 14.5625C9.19167 15.0708 9.35833 15.55 9.575 16H2Z" fill="white"/>
</svg>
