<svg width="22" height="22" viewBox="0 0 22 22" fill="none" xmlns="http://www.w3.org/2000/svg">
<path d="M7.85 19.125C6.11667 18.325 4.70833 17.1167 3.625 15.5C2.54167 13.8833 2 12.0583 2 10.025C2 9.59167 2.02083 9.16667 2.0625 8.75C2.10417 8.33333 2.175 7.925 2.275 7.525L1.125 8.2L0.125 6.475L4.9 3.725L7.65 8.475L5.9 9.475L4.55 7.125C4.36667 7.575 4.22917 8.04167 4.1375 8.525C4.04583 9.00833 4 9.50833 4 10.025C4 11.6417 4.44167 13.1125 5.325 14.4375C6.20833 15.7625 7.38333 16.7417 8.85 17.375L7.85 19.125ZM15.5 7V5H18.225C17.4583 4.05 16.5333 3.3125 15.45 2.7875C14.3667 2.2625 13.2167 2 12 2C11.0833 2 10.2167 2.14167 9.4 2.425C8.58333 2.70833 7.83333 3.10833 7.15 3.625L6.15 1.875C6.98333 1.29167 7.89167 0.833333 8.875 0.5C9.85833 0.166667 10.9 0 12 0C13.3167 0 14.575 0.245833 15.775 0.7375C16.975 1.22917 18.05 1.94167 19 2.875V1.5H21V7H15.5ZM14.85 22L10.075 19.25L12.825 14.5L14.55 15.5L13.125 17.95C15.0917 17.6667 16.7292 16.775 18.0375 15.275C19.3458 13.775 20 12.0167 20 10C20 9.81667 19.9958 9.64583 19.9875 9.4875C19.9792 9.32917 19.9583 9.16667 19.925 9H21.95C21.9667 9.16667 21.9792 9.32917 21.9875 9.4875C21.9958 9.64583 22 9.81667 22 10C22 12.25 21.3292 14.2625 19.9875 16.0375C18.6458 17.8125 16.9 19.0083 14.75 19.625L15.85 20.275L14.85 22Z" fill="white"/>
</svg>
