<svg width="17" height="16" viewBox="0 0 17 16" fill="none" xmlns="http://www.w3.org/2000/svg">
<path d="M15.5884 0.259766H13.6284C13.5099 0.259766 13.3952 0.302886 13.305 0.381286L6.54108 6.31127C6.19122 6.23777 5.65026 6.13977 5.29844 6.13977C2.59658 6.13977 0.398438 8.3379 0.398438 11.0398C0.398438 13.7416 2.59658 15.9398 5.29844 15.9398C8.0003 15.9398 10.1984 13.7416 10.1984 11.0398C10.1984 10.2371 10.0456 9.69913 9.8721 9.25224L11.5401 8.68581C11.6388 8.65225 11.7243 8.58806 11.784 8.50258C11.8438 8.41709 11.8747 8.31477 11.8723 8.21051L11.8311 6.35047L13.7029 6.22013C13.824 6.21169 13.9377 6.1586 14.0219 6.07115C14.106 5.9837 14.1548 5.86811 14.1586 5.74679L14.2282 3.51337L15.6943 3.18801C15.8032 3.16391 15.9006 3.10339 15.9705 3.01644C16.0403 2.92948 16.0784 2.8213 16.0784 2.70977V0.749766C16.0784 0.61981 16.0268 0.495176 15.9349 0.403283C15.843 0.31139 15.7184 0.259766 15.5884 0.259766ZM3.82844 11.0398C4.21819 11.0402 4.59186 11.1952 4.86745 11.4707C5.14305 11.7463 5.29805 12.12 5.29844 12.5098C5.28854 12.8931 5.12932 13.2573 4.85472 13.5249C4.58012 13.7925 4.21186 13.9423 3.82844 13.9423C3.44501 13.9423 3.07675 13.7925 2.80215 13.5249C2.52755 13.2573 2.36833 12.8931 2.35844 12.5098C2.35844 11.6983 3.017 11.0398 3.82844 11.0398Z" fill="white"/>
</svg>
