<svg width="20" height="20" viewBox="0 0 20 20" fill="none" xmlns="http://www.w3.org/2000/svg">
<path d="M20 10C20 15.523 15.523 20 10 20C4.477 20 0 15.523 0 10C0 4.477 4.477 0 10 0C15.523 0 20 4.477 20 10ZM12.343 4.208C12.1885 4.07417 11.9909 4.0005 11.7865 4.0005C11.5821 4.0005 11.3845 4.07417 11.23 4.208C11.1577 4.27033 11.0996 4.34754 11.0598 4.43434C11.0201 4.52115 10.9995 4.61551 10.9995 4.711C10.9995 4.80649 11.0201 4.90085 11.0598 4.98766C11.0996 5.07446 11.1577 5.15167 11.23 5.214C14.153 7.857 14.153 12.142 11.23 14.785C11.1577 14.8473 11.0996 14.9245 11.0598 15.0113C11.0201 15.0981 10.9995 15.1925 10.9995 15.288C10.9995 15.3835 11.0201 15.4779 11.0598 15.5647C11.0996 15.6515 11.1577 15.7287 11.23 15.791C11.3845 15.9248 11.5821 15.9985 11.7865 15.9985C11.9909 15.9985 12.1885 15.9248 12.343 15.791C15.881 12.593 15.881 7.407 12.343 4.208ZM8.217 5.722C8.07771 5.86566 7.99981 6.0579 7.99981 6.258C7.99981 6.4581 8.07771 6.65034 8.217 6.794C9.951 8.565 9.951 11.437 8.217 13.209C8.07771 13.3527 7.99981 13.5449 7.99981 13.745C7.99981 13.9451 8.07771 14.1373 8.217 14.281C8.28508 14.3515 8.36665 14.4075 8.45684 14.4458C8.54704 14.4841 8.64402 14.5038 8.742 14.5038C8.83998 14.5038 8.93696 14.4841 9.02716 14.4458C9.11735 14.4075 9.19892 14.3515 9.267 14.281C11.58 11.917 11.58 8.085 9.267 5.722C9.19892 5.65153 9.11735 5.59549 9.02716 5.55722C8.93696 5.51895 8.83998 5.49922 8.742 5.49922C8.64402 5.49922 8.54704 5.51895 8.45684 5.55722C8.36665 5.59549 8.28508 5.65153 8.217 5.722ZM6.302 7.216C6.15681 7.07695 5.96354 6.99933 5.7625 6.99933C5.56146 6.99933 5.36819 7.07695 5.223 7.216C5.15251 7.28324 5.0964 7.36408 5.05806 7.45363C5.01972 7.54318 4.99995 7.63959 4.99995 7.737C4.99995 7.83441 5.01972 7.93082 5.05806 8.02037C5.0964 8.10992 5.15251 8.19076 5.223 8.258C5.45896 8.48255 5.64684 8.7527 5.77521 9.05207C5.90358 9.35144 5.96978 9.67377 5.96978 9.9995C5.96978 10.3252 5.90358 10.6476 5.77521 10.9469C5.64684 11.2463 5.45896 11.5165 5.223 11.741C5.15235 11.8082 5.09611 11.8892 5.05767 11.9788C5.01924 12.0684 4.99942 12.165 4.99942 12.2625C4.99942 12.36 5.01924 12.4566 5.05767 12.5462C5.09611 12.6358 5.15235 12.7168 5.223 12.784C5.36824 12.9233 5.56172 13.0012 5.763 13.0012C5.96428 13.0012 6.15776 12.9233 6.303 12.784C6.68023 12.425 6.98057 11.9932 7.1858 11.5146C7.39103 11.036 7.49685 10.5207 7.49685 10C7.49685 9.47928 7.39103 8.96399 7.1858 8.48541C6.98057 8.00683 6.68023 7.57496 6.303 7.216" fill="white"/>
</svg>
