<svg width="20" height="21" viewBox="0 0 20 21" fill="none" xmlns="http://www.w3.org/2000/svg">
<path d="M18 0C19.1 0 20 0.9 20 2V18C20 19.1 19.1 20 18 20H17V21H13V20H7V21H3V20H2C0.9 20 0 19.1 0 18V2C0 0.9 0.9 0 2 0H18ZM15 10C15 9 14.7 8 14.2 7.2L15.7 5.7L14.3 4.3L12.8 5.8C12 5.3 11 5 10 5C9 5 8 5.3 7.2 5.8L5.8 4.3L4.3 5.8L5.8 7.3C5.3 8 5 9 5 10C5 11 5.3 12 5.8 12.8L4.3 14.3L5.8 15.7L7.3 14.2C8 14.7 9 15 10 15C11 15 12 14.7 12.8 14.2L14.3 15.7L15.7 14.3L14.2 12.8C14.7 12 15 11 15 10ZM10 7C11.7 7 13 8.3 13 10C13 11.7 11.7 13 10 13C8.3 13 7 11.7 7 10C7 8.3 8.3 7 10 7ZM10 12C11.1 12 12 11.1 12 10C12 8.9 11.1 8 10 8C8.9 8 8 8.9 8 10C8 11.1 8.9 12 10 12Z" fill="white"/>
</svg>
