<svg width="18" height="18" viewBox="0 0 18 18" fill="none" xmlns="http://www.w3.org/2000/svg">
<path d="M0 11V9C1.23333 9 2.39583 8.7625 3.4875 8.2875C4.57917 7.8125 5.53333 7.16667 6.35 6.35C7.16667 5.53333 7.8125 4.57917 8.2875 3.4875C8.7625 2.39583 9 1.23333 9 0H11C11 1.51667 10.7125 2.94167 10.1375 4.275C9.5625 5.60833 8.775 6.775 7.775 7.775C6.775 8.775 5.60833 9.5625 4.275 10.1375C2.94167 10.7125 1.51667 11 0 11ZM0 7V5C1.38333 5 2.5625 4.5125 3.5375 3.5375C4.5125 2.5625 5 1.38333 5 0H7C7 1.93333 6.31667 3.58333 4.95 4.95C3.58333 6.31667 1.93333 7 0 7ZM0 3V0H3C3 0.833333 2.70833 1.54167 2.125 2.125C1.54167 2.70833 0.833333 3 0 3ZM7 18C7 16.4833 7.2875 15.0583 7.8625 13.725C8.4375 12.3917 9.225 11.225 10.225 10.225C11.225 9.225 12.3917 8.4375 13.725 7.8625C15.0583 7.2875 16.4833 7 18 7V9C16.7667 9 15.6042 9.2375 14.5125 9.7125C13.4208 10.1875 12.4667 10.8333 11.65 11.65C10.8333 12.4667 10.1875 13.4208 9.7125 14.5125C9.2375 15.6042 9 16.7667 9 18H7ZM11 18C11 16.0667 11.6833 14.4167 13.05 13.05C14.4167 11.6833 16.0667 11 18 11V13C16.6167 13 15.4375 13.4875 14.4625 14.4625C13.4875 15.4375 13 16.6167 13 18H11ZM15 18C15 17.1667 15.2917 16.4583 15.875 15.875C16.4583 15.2917 17.1667 15 18 15V18H15Z" fill="white"/>
</svg>
