<svg width="14" height="24" viewBox="0 0 14 24" fill="none" xmlns="http://www.w3.org/2000/svg">
<path d="M1.44 24C1.05809 24 0.691819 23.8483 0.421766 23.5782C0.151714 23.3082 0 22.9419 0 22.56L0 5.656C0 4.861 0.645 4.216 1.44 4.216H3.146C3.20067 4.216 3.251 4.228 3.297 4.252L3.295 4.251V0.168C3.295 0.075 3.37 0 3.463 0H9.483C9.576 0 9.651 0.075 9.651 0.168V4.227C9.6771 4.22008 9.70401 4.21672 9.731 4.217H11.246C12.041 4.217 12.686 4.862 12.686 5.657V9.688C12.7308 9.665 12.7807 9.65366 12.831 9.655H13.588C13.774 9.655 13.925 9.806 13.925 9.992V18.764C13.925 18.8534 13.8895 18.9391 13.8263 19.0023C13.7631 19.0655 13.6774 19.101 13.588 19.101H12.831C12.7799 19.1024 12.7293 19.0907 12.684 19.067L12.686 19.068V22.56C12.686 22.9419 12.5343 23.3082 12.2642 23.5782C11.9942 23.8483 11.6279 24 11.246 24H1.44ZM8.764 20.769V21.903C8.76426 21.9477 8.78215 21.9906 8.81379 22.0222C8.84543 22.0538 8.88826 22.0717 8.933 22.072H10.267C10.3117 22.0717 10.3546 22.0538 10.3862 22.0222C10.4178 21.9906 10.4357 21.9477 10.436 21.903V20.769C10.4355 20.7244 10.4175 20.6819 10.3859 20.6504C10.3543 20.619 10.3116 20.6013 10.267 20.601H8.931C8.88643 20.6013 8.84375 20.619 8.81214 20.6504C8.78053 20.6819 8.76252 20.7244 8.762 20.769H8.764ZM5.608 20.769V21.903C5.60826 21.9477 5.62615 21.9906 5.65779 22.0222C5.68943 22.0538 5.73226 22.0717 5.777 22.072H7.11C7.15474 22.0717 7.19757 22.0538 7.22921 22.0222C7.26085 21.9906 7.27874 21.9477 7.279 21.903V20.769C7.27848 20.7244 7.26047 20.6819 7.22886 20.6504C7.19725 20.619 7.15457 20.6013 7.11 20.601H5.776C5.73143 20.6013 5.68875 20.619 5.65714 20.6504C5.62553 20.6819 5.60852 20.7244 5.608 20.769ZM2.452 20.769V21.904C2.452 21.997 2.527 22.072 2.62 22.072H3.954C3.99874 22.0717 4.04157 22.0538 4.07321 22.0222C4.10485 21.9906 4.12274 21.9477 4.123 21.903V20.769C4.12248 20.7244 4.10447 20.6819 4.07286 20.6504C4.04125 20.619 3.99857 20.6013 3.954 20.601H2.62C2.5756 20.6015 2.53317 20.6194 2.50178 20.6508C2.47039 20.6822 2.45252 20.7246 2.452 20.769ZM8.763 18.198V19.332C8.76326 19.3767 8.78115 19.4196 8.81279 19.4512C8.84443 19.4828 8.88726 19.5007 8.932 19.501H10.266C10.3107 19.5007 10.3536 19.4828 10.3852 19.4512C10.4168 19.4196 10.4347 19.3767 10.435 19.332V18.197C10.4345 18.1526 10.4166 18.1102 10.3852 18.0788C10.3538 18.0474 10.3114 18.0295 10.267 18.029H8.93C8.8856 18.0295 8.84317 18.0474 8.81178 18.0788C8.78039 18.1102 8.76252 18.1526 8.762 18.197L8.763 18.198ZM5.607 18.198V19.332C5.60726 19.3767 5.62515 19.4196 5.65679 19.4512C5.68843 19.4828 5.73126 19.5007 5.776 19.501H7.11C7.15474 19.5007 7.19757 19.4828 7.22921 19.4512C7.26085 19.4196 7.27874 19.3767 7.279 19.332V18.197C7.27848 18.1526 7.26061 18.1102 7.22922 18.0788C7.19783 18.0474 7.1554 18.0295 7.111 18.029H5.775C5.73061 18.0295 5.68817 18.0474 5.65678 18.0788C5.62539 18.1102 5.60752 18.1536 5.607 18.198ZM2.451 18.198V19.333C2.451 19.426 2.526 19.501 2.619 19.501H3.953C3.99774 19.5007 4.04057 19.4828 4.07221 19.4512C4.10385 19.4196 4.12174 19.3767 4.122 19.332V18.197C4.12148 18.1526 4.10361 18.1102 4.07222 18.0788C4.04083 18.0474 3.9984 18.0295 3.954 18.029H2.619C2.5746 18.0295 2.53217 18.0474 2.50078 18.0788C2.46939 18.1102 2.45152 18.1536 2.451 18.198ZM8.762 15.626V16.761C8.762 16.854 8.837 16.929 8.93 16.929H10.266C10.3104 16.9285 10.3528 16.9106 10.3842 16.8792C10.4156 16.8478 10.4335 16.8054 10.434 16.761V15.626C10.4335 15.5814 10.4155 15.5389 10.3839 15.5074C10.3523 15.476 10.3096 15.4583 10.265 15.458H8.931C8.88643 15.4583 8.84375 15.476 8.81214 15.5074C8.78053 15.5389 8.76252 15.5814 8.762 15.626ZM5.606 15.626V16.761C5.606 16.854 5.681 16.929 5.774 16.929H7.11C7.1544 16.9285 7.19683 16.9106 7.22822 16.8792C7.25961 16.8478 7.27748 16.8054 7.278 16.761V15.626C7.27748 15.5814 7.25947 15.5389 7.22786 15.5074C7.19625 15.476 7.15357 15.4583 7.109 15.458H5.775C5.73043 15.4583 5.68775 15.476 5.65614 15.5074C5.62453 15.5389 5.60652 15.5814 5.606 15.626ZM2.45 15.626V16.761C2.45 16.854 2.525 16.929 2.618 16.929H3.954C3.9984 16.9285 4.04083 16.9106 4.07222 16.8792C4.10361 16.8478 4.12148 16.8054 4.122 16.761V15.626C4.12148 15.5814 4.10347 15.5389 4.07186 15.5074C4.04025 15.476 3.99757 15.4583 3.953 15.458H2.619C2.5746 15.4585 2.53217 15.4764 2.50078 15.5078C2.46939 15.5392 2.45052 15.5816 2.45 15.626ZM2.24 8.913V13.825C2.24 13.918 2.315 13.993 2.408 13.993H10.17C10.2144 13.9925 10.2568 13.9746 10.2882 13.9432C10.3196 13.9118 10.3375 13.8694 10.338 13.825V8.913C10.3377 8.86826 10.3198 8.82543 10.2882 8.79379C10.2566 8.76215 10.2137 8.74426 10.169 8.744H2.409C2.36426 8.74426 2.32143 8.76215 2.28979 8.79379C2.25815 8.82543 2.24026 8.86826 2.24 8.913ZM1.736 6.231V7.421C1.736 7.7 1.962 7.926 2.241 7.926H10.64C10.7739 7.926 10.9024 7.8728 10.9971 7.77809C11.0918 7.68338 11.145 7.55493 11.145 7.421V6.231C11.145 6.09707 11.0918 5.96862 10.9971 5.87391C10.9024 5.7792 10.7739 5.726 10.64 5.726H9.65V6.736H10.138V6.914H2.746V6.736H3.067C3.14814 6.73619 3.22811 6.71662 3.3 6.679L3.297 6.68V5.782C3.22562 5.74504 3.14638 5.72583 3.066 5.726H2.239C2.10524 5.72626 1.97705 5.77959 1.88256 5.87426C1.78807 5.96894 1.736 6.09724 1.736 6.231Z" fill="white"/>
</svg>
