<svg width="21" height="20" viewBox="0 0 21 20" fill="none" xmlns="http://www.w3.org/2000/svg">
<path d="M5.63672 6C5.08672 6 4.61589 5.80417 4.22422 5.4125C3.83255 5.02083 3.63672 4.55 3.63672 4V2C3.63672 1.45 3.83255 0.979167 4.22422 0.5875C4.61589 0.195833 5.08672 0 5.63672 0H15.6367C16.1867 0 16.6576 0.195833 17.0492 0.5875C17.4409 0.979167 17.6367 1.45 17.6367 2V4C17.6367 4.55 17.4409 5.02083 17.0492 5.4125C16.6576 5.80417 16.1867 6 15.6367 6H5.63672ZM5.63672 4H15.6367V2H5.63672V4ZM2.63672 20C2.08672 20 1.61589 19.8042 1.22422 19.4125C0.832552 19.0208 0.636719 18.55 0.636719 18V17H20.6367V18C20.6367 18.55 20.4409 19.0208 20.0492 19.4125C19.6576 19.8042 19.1867 20 18.6367 20H2.63672ZM0.636719 16L4.11172 8.175C4.27839 7.80833 4.52839 7.52083 4.86172 7.3125C5.19505 7.10417 5.55339 7 5.93672 7H15.3367C15.7201 7 16.0784 7.10417 16.4117 7.3125C16.7451 7.52083 16.9951 7.80833 17.1617 8.175L20.6367 16H0.636719ZM7.13672 14H8.13672C8.27005 14 8.38672 13.95 8.48672 13.85C8.58672 13.75 8.63672 13.6333 8.63672 13.5C8.63672 13.3667 8.58672 13.25 8.48672 13.15C8.38672 13.05 8.27005 13 8.13672 13H7.13672C7.00339 13 6.88672 13.05 6.78672 13.15C6.68672 13.25 6.63672 13.3667 6.63672 13.5C6.63672 13.6333 6.68672 13.75 6.78672 13.85C6.88672 13.95 7.00339 14 7.13672 14ZM7.13672 12H8.13672C8.27005 12 8.38672 11.95 8.48672 11.85C8.58672 11.75 8.63672 11.6333 8.63672 11.5C8.63672 11.3667 8.58672 11.25 8.48672 11.15C8.38672 11.05 8.27005 11 8.13672 11H7.13672C7.00339 11 6.88672 11.05 6.78672 11.15C6.68672 11.25 6.63672 11.3667 6.63672 11.5C6.63672 11.6333 6.68672 11.75 6.78672 11.85C6.88672 11.95 7.00339 12 7.13672 12ZM7.13672 10H8.13672C8.27005 10 8.38672 9.95 8.48672 9.85C8.58672 9.75 8.63672 9.63333 8.63672 9.5C8.63672 9.36667 8.58672 9.25 8.48672 9.15C8.38672 9.05 8.27005 9 8.13672 9H7.13672C7.00339 9 6.88672 9.05 6.78672 9.15C6.68672 9.25 6.63672 9.36667 6.63672 9.5C6.63672 9.63333 6.68672 9.75 6.78672 9.85C6.88672 9.95 7.00339 10 7.13672 10ZM10.1367 14H11.1367C11.2701 14 11.3867 13.95 11.4867 13.85C11.5867 13.75 11.6367 13.6333 11.6367 13.5C11.6367 13.3667 11.5867 13.25 11.4867 13.15C11.3867 13.05 11.2701 13 11.1367 13H10.1367C10.0034 13 9.88672 13.05 9.78672 13.15C9.68672 13.25 9.63672 13.3667 9.63672 13.5C9.63672 13.6333 9.68672 13.75 9.78672 13.85C9.88672 13.95 10.0034 14 10.1367 14ZM10.1367 12H11.1367C11.2701 12 11.3867 11.95 11.4867 11.85C11.5867 11.75 11.6367 11.6333 11.6367 11.5C11.6367 11.3667 11.5867 11.25 11.4867 11.15C11.3867 11.05 11.2701 11 11.1367 11H10.1367C10.0034 11 9.88672 11.05 9.78672 11.15C9.68672 11.25 9.63672 11.3667 9.63672 11.5C9.63672 11.6333 9.68672 11.75 9.78672 11.85C9.88672 11.95 10.0034 12 10.1367 12ZM10.1367 10H11.1367C11.2701 10 11.3867 9.95 11.4867 9.85C11.5867 9.75 11.6367 9.63333 11.6367 9.5C11.6367 9.36667 11.5867 9.25 11.4867 9.15C11.3867 9.05 11.2701 9 11.1367 9H10.1367C10.0034 9 9.88672 9.05 9.78672 9.15C9.68672 9.25 9.63672 9.36667 9.63672 9.5C9.63672 9.63333 9.68672 9.75 9.78672 9.85C9.88672 9.95 10.0034 10 10.1367 10ZM13.1367 14H14.1367C14.2701 14 14.3867 13.95 14.4867 13.85C14.5867 13.75 14.6367 13.6333 14.6367 13.5C14.6367 13.3667 14.5867 13.25 14.4867 13.15C14.3867 13.05 14.2701 13 14.1367 13H13.1367C13.0034 13 12.8867 13.05 12.7867 13.15C12.6867 13.25 12.6367 13.3667 12.6367 13.5C12.6367 13.6333 12.6867 13.75 12.7867 13.85C12.8867 13.95 13.0034 14 13.1367 14ZM13.1367 12H14.1367C14.2701 12 14.3867 11.95 14.4867 11.85C14.5867 11.75 14.6367 11.6333 14.6367 11.5C14.6367 11.3667 14.5867 11.25 14.4867 11.15C14.3867 11.05 14.2701 11 14.1367 11H13.1367C13.0034 11 12.8867 11.05 12.7867 11.15C12.6867 11.25 12.6367 11.3667 12.6367 11.5C12.6367 11.6333 12.6867 11.75 12.7867 11.85C12.8867 11.95 13.0034 12 13.1367 12ZM13.1367 10H14.1367C14.2701 10 14.3867 9.95 14.4867 9.85C14.5867 9.75 14.6367 9.63333 14.6367 9.5C14.6367 9.36667 14.5867 9.25 14.4867 9.15C14.3867 9.05 14.2701 9 14.1367 9H13.1367C13.0034 9 12.8867 9.05 12.7867 9.15C12.6867 9.25 12.6367 9.36667 12.6367 9.5C12.6367 9.63333 12.6867 9.75 12.7867 9.85C12.8867 9.95 13.0034 10 13.1367 10Z" fill="white"/>
</svg>
