<svg width="19" height="19" viewBox="0 0 19 19" fill="none" xmlns="http://www.w3.org/2000/svg">
<path d="M2 19C1.45 19 0.979167 18.8042 0.5875 18.4125C0.195833 18.0208 0 17.55 0 17V13C0 12.45 0.195833 11.9792 0.5875 11.5875C0.979167 11.1958 1.45 11 2 11H12V7H14V11H16C16.55 11 17.0208 11.1958 17.4125 11.5875C17.8042 11.9792 18 12.45 18 13V17C18 17.55 17.8042 18.0208 17.4125 18.4125C17.0208 18.8042 16.55 19 16 19H2ZM4 16C4.28333 16 4.52083 15.9042 4.7125 15.7125C4.90417 15.5208 5 15.2833 5 15C5 14.7167 4.90417 14.4792 4.7125 14.2875C4.52083 14.0958 4.28333 14 4 14C3.71667 14 3.47917 14.0958 3.2875 14.2875C3.09583 14.4792 3 14.7167 3 15C3 15.2833 3.09583 15.5208 3.2875 15.7125C3.47917 15.9042 3.71667 16 4 16ZM7.5 16C7.78333 16 8.02083 15.9042 8.2125 15.7125C8.40417 15.5208 8.5 15.2833 8.5 15C8.5 14.7167 8.40417 14.4792 8.2125 14.2875C8.02083 14.0958 7.78333 14 7.5 14C7.21667 14 6.97917 14.0958 6.7875 14.2875C6.59583 14.4792 6.5 14.7167 6.5 15C6.5 15.2833 6.59583 15.5208 6.7875 15.7125C6.97917 15.9042 7.21667 16 7.5 16ZM11 16C11.2833 16 11.5208 15.9042 11.7125 15.7125C11.9042 15.5208 12 15.2833 12 15C12 14.7167 11.9042 14.4792 11.7125 14.2875C11.5208 14.0958 11.2833 14 11 14C10.7167 14 10.4792 14.0958 10.2875 14.2875C10.0958 14.4792 10 14.7167 10 15C10 15.2833 10.0958 15.5208 10.2875 15.7125C10.4792 15.9042 10.7167 16 11 16ZM11.25 6.25L9.8 4.8C10.2333 4.4 10.7167 4.08333 11.25 3.85C11.7833 3.61667 12.3667 3.5 13 3.5C13.6333 3.5 14.2167 3.61667 14.75 3.85C15.2833 4.08333 15.7667 4.4 16.2 4.8L14.75 6.25C14.5167 6.01667 14.2542 5.83333 13.9625 5.7C13.6708 5.56667 13.35 5.5 13 5.5C12.65 5.5 12.3292 5.56667 12.0375 5.7C11.7458 5.83333 11.4833 6.01667 11.25 6.25ZM8.75 3.75L7.35 2.35C8.08333 1.61667 8.93333 1.04167 9.9 0.625C10.8667 0.208333 11.9 0 13 0C14.1 0 15.1333 0.208333 16.1 0.625C17.0667 1.04167 17.9167 1.61667 18.65 2.35L17.25 3.75C16.7 3.2 16.0625 2.77083 15.3375 2.4625C14.6125 2.15417 13.8333 2 13 2C12.1667 2 11.3875 2.15417 10.6625 2.4625C9.9375 2.77083 9.3 3.2 8.75 3.75Z" fill="white"/>
</svg>
