<svg width="24" height="16" viewBox="0 0 24 16" fill="none" xmlns="http://www.w3.org/2000/svg">
<path d="M18 15.75C19.7333 15.3 21.1667 14.3667 22.3 12.95C23.4333 11.5333 24 9.88333 24 8C24 6.11667 23.4333 4.46667 22.3 3.05C21.1667 1.63333 19.7333 0.7 18 0.25V2.35C19.1833 2.75 20.1458 3.46667 20.8875 4.5C21.6292 5.53333 22 6.7 22 8C22 9.3 21.6292 10.4667 20.8875 11.5C20.1458 12.5333 19.1833 13.25 18 13.65V15.75ZM10 16C12.2167 16 14.1042 15.2208 15.6625 13.6625C17.2208 12.1042 18 10.2167 18 8C18 5.78333 17.2208 3.89583 15.6625 2.3375C14.1042 0.779167 12.2167 0 10 0C8.9 0 7.86667 0.208333 6.9 0.625C5.93333 1.04167 5.08333 1.61667 4.35 2.35L5.75 3.75C6.3 3.2 6.9375 2.77083 7.6625 2.4625C8.3875 2.15417 9.16667 2 10 2C11.6667 2 13.0833 2.58333 14.25 3.75C15.4167 4.91667 16 6.33333 16 8C16 9.66667 15.4167 11.0833 14.25 12.25C13.0833 13.4167 11.6667 14 10 14C9.16667 14 8.3875 13.8458 7.6625 13.5375C6.9375 13.2292 6.3 12.8 5.75 12.25L4.35 13.65C5.08333 14.3833 5.93333 14.9583 6.9 15.375C7.86667 15.7917 8.9 16 10 16ZM4 12L5.4 10.6L3.8 9H11V7H3.8L5.4 5.4L4 4L0 8L4 12Z" fill="white"/>
</svg>
