<svg width="22" height="16" viewBox="0 0 22 16" fill="none" xmlns="http://www.w3.org/2000/svg">
<path d="M14 16C11.7667 16 9.875 15.225 8.325 13.675C6.775 12.125 6 10.2333 6 8C6 5.76667 6.775 3.875 8.325 2.325C9.875 0.775 11.7667 0 14 0C16.2333 0 18.125 0.775 19.675 2.325C21.225 3.875 22 5.76667 22 8C22 10.2333 21.225 12.125 19.675 13.675C18.125 15.225 16.2333 16 14 16ZM6 15.75C4.23333 15.2833 2.79167 14.3333 1.675 12.9C0.558333 11.4667 0 9.83333 0 8C0 6.16667 0.558333 4.53333 1.675 3.1C2.79167 1.66667 4.23333 0.716667 6 0.25V2.35C4.8 2.76667 3.83333 3.49167 3.1 4.525C2.36667 5.55833 2 6.71667 2 8C2 9.28333 2.36667 10.4417 3.1 11.475C3.83333 12.5083 4.8 13.2333 6 13.65V15.75Z" fill="white"/>
</svg>
