<svg width="22" height="21" viewBox="0 0 22 21" fill="none" xmlns="http://www.w3.org/2000/svg">
<path d="M6.78906 18.4547V9.42969H8.38906C8.50573 9.42969 8.6224 9.44219 8.73906 9.46719C8.85573 9.49219 8.9724 9.52135 9.08906 9.55469L16.0141 12.1297C16.2474 12.213 16.4349 12.363 16.5766 12.5797C16.7182 12.7964 16.7891 13.0214 16.7891 13.2547C16.7891 13.6047 16.6682 13.888 16.4266 14.1047C16.1849 14.3214 15.9057 14.4297 15.5891 14.4297H12.9641C12.8807 14.4297 12.8182 14.4255 12.7766 14.4172C12.7349 14.4089 12.6807 14.388 12.6141 14.3547L11.0141 13.7297L10.6891 14.7047L12.6141 15.3797C12.6474 15.3964 12.6974 15.4089 12.7641 15.4172C12.8307 15.4255 12.8891 15.4297 12.9391 15.4297H19.7891C20.3224 15.4297 20.7891 15.6214 21.1891 16.0047C21.5891 16.388 21.7891 16.863 21.7891 17.4297L13.8141 20.4297L6.78906 18.4547ZM0.789062 20.4297V9.42969H4.78906V20.4297H0.789062ZM15.7891 11.4297L11.6391 7.37969C11.1224 6.87969 10.6849 6.32552 10.3266 5.71719C9.96823 5.10885 9.78906 4.44635 9.78906 3.72969C9.78906 2.81302 10.1099 2.03385 10.7516 1.39219C11.3932 0.750521 12.1724 0.429688 13.0891 0.429688C13.6224 0.429688 14.1224 0.542187 14.5891 0.767188C15.0557 0.992188 15.4557 1.29635 15.7891 1.67969C16.1224 1.29635 16.5224 0.992188 16.9891 0.767188C17.4557 0.542187 17.9557 0.429688 18.4891 0.429688C19.4057 0.429688 20.1849 0.750521 20.8266 1.39219C21.4682 2.03385 21.7891 2.81302 21.7891 3.72969C21.7891 4.44635 21.6141 5.10885 21.2641 5.71719C20.9141 6.32552 20.4807 6.87969 19.9641 7.37969L15.7891 11.4297Z" fill="white"/>
</svg>
