<svg width="592" height="446" viewBox="0 0 592 446" fill="none" xmlns="http://www.w3.org/2000/svg">
<path d="M336.932 167.635V199.734L327.982 204.884V229.884L321.832 233.434L306.332 242.384V192.384L327.832 179.984C333.882 176.484 336.932 172.335 336.932 167.635Z" stroke="white" stroke-width="9.1405" stroke-linecap="round" stroke-linejoin="round"/>
<path d="M47.9512 316.54V416.54C19.5511 389.19 5.30117 359.44 5.20117 327.24V228.891C5.50117 244.891 9.30117 260.29 16.6512 275.04C23.7512 289.44 34.2011 303.29 47.9512 316.54Z" stroke="white" stroke-width="9.1405" stroke-linecap="round" stroke-linejoin="round"/>
<path d="M478.388 68.0633L240.638 5.36328L109.388 81.1133C54.8881 112.563 21.638 150.613 9.63804 195.263C6.53804 206.763 5.08814 217.813 5.33814 228.713V228.864C5.58814 244.864 9.38814 260.263 16.7381 275.013C23.8381 289.413 34.288 303.263 48.0381 316.513C87.3381 330.113 129.488 338.063 174.538 340.463C201.338 341.863 229.188 341.313 258.088 338.713C283.988 336.413 308.638 332.714 331.988 327.564C378.288 317.514 419.588 302.013 455.788 281.113L532.738 236.713L587.038 205.363L478.388 68.0633ZM349.538 192.463L336.988 199.713L328.038 204.863L336.988 210.013L349.688 217.363L336.988 224.713L328.038 229.863L321.888 233.413L306.388 242.363L284.588 254.963L263.088 267.363L242.088 279.464L198.788 254.464L112.188 204.464L219.788 142.363L241.438 154.863L262.938 142.463C274.788 135.613 289.138 132.213 306.038 132.263C322.938 132.263 337.388 135.714 349.288 142.614C361.188 149.464 367.188 157.814 367.238 167.564C367.288 177.314 361.388 185.613 349.538 192.463Z" stroke="white" stroke-width="9.1405" stroke-linecap="round" stroke-linejoin="round"/>
<path d="M219.743 142.344V242.344L198.743 254.444L112.143 204.444L219.743 142.344Z" stroke="white" stroke-width="9.1405" stroke-linecap="round" stroke-linejoin="round"/>
<path d="M241.435 154.844V254.844L219.785 242.344V142.344L241.435 154.844Z" stroke="white" stroke-width="9.1405" stroke-linecap="round" stroke-linejoin="round"/>
<path d="M336.894 167.53V167.63C336.894 172.33 333.844 176.48 327.794 179.98L306.294 192.38L262.994 167.38L284.494 154.98C290.594 151.43 297.794 149.68 306.044 149.73C314.344 149.73 321.544 151.48 327.644 155.03C333.794 158.58 336.894 162.73 336.894 167.53Z" stroke="white" stroke-width="9.1405" stroke-linecap="round" stroke-linejoin="round"/>
<path d="M306.294 192.355V242.355L284.494 254.955L262.994 267.355V167.355L306.294 192.355Z" stroke="white" stroke-width="9.1405" stroke-linecap="round" stroke-linejoin="round"/>
<path d="M367.239 167.592C367.289 177.342 361.389 185.642 349.539 192.492L336.989 199.742V167.542C336.989 162.742 333.889 158.592 327.739 155.042C321.639 151.492 314.439 149.742 306.139 149.742C297.889 149.692 290.689 151.442 284.589 154.992L263.089 167.392V242.392C263.089 242.392 262.989 242.442 262.939 242.492L241.439 254.892V154.892L262.939 142.492C274.789 135.642 289.139 132.242 306.039 132.292C322.939 132.292 337.389 135.742 349.289 142.642C361.189 149.492 367.189 157.842 367.239 167.592Z" stroke="white" stroke-width="9.1405" stroke-linecap="round" stroke-linejoin="round"/>
<path d="M349.656 217.358L336.956 224.708L328.006 229.858V204.858L336.956 210.008L349.656 217.358Z" stroke="white" stroke-width="9.1405" stroke-linecap="round" stroke-linejoin="round"/>
<path d="M587.038 205.348V305.348L455.79 381.098C401.29 412.548 335.39 431.748 258.09 438.698C180.79 445.598 110.789 438.198 48.0391 416.498V316.498C87.3391 330.098 129.49 338.048 174.54 340.448C201.34 341.848 229.19 341.298 258.09 338.698C283.99 336.398 308.64 332.698 331.99 327.548C378.29 317.498 419.59 301.998 455.79 281.098L532.738 236.698L587.038 205.348Z" stroke="white" stroke-width="9.1405" stroke-linecap="round" stroke-linejoin="round"/>
</svg>
