<svg width="24" height="24" viewBox="0 0 24 24" fill="none" xmlns="http://www.w3.org/2000/svg">
<path d="M6.75 7.5H17.25C17.4489 7.5 17.6397 7.42098 17.7803 7.28033C17.921 7.13968 18 6.94891 18 6.75C18 6.55109 17.921 6.36032 17.7803 6.21967C17.6397 6.07902 17.4489 6 17.25 6H6.75C6.55109 6 6.36032 6.07902 6.21967 6.21967C6.07902 6.36032 6 6.55109 6 6.75C6 6.94891 6.07902 7.13968 6.21967 7.28033C6.36032 7.42098 6.55109 7.5 6.75 7.5ZM6.75 12.75H17.25C17.4489 12.75 17.6397 12.671 17.7803 12.5303C17.921 12.3897 18 12.1989 18 12C18 11.8011 17.921 11.6103 17.7803 11.4697C17.6397 11.329 17.4489 11.25 17.25 11.25H6.75C6.55109 11.25 6.36032 11.329 6.21967 11.4697C6.07902 11.6103 6 11.8011 6 12C6 12.1989 6.07902 12.3897 6.21967 12.5303C6.36032 12.671 6.55109 12.75 6.75 12.75ZM12.75 16.5H6.75C6.55109 16.5 6.36032 16.579 6.21967 16.7197C6.07902 16.8603 6 17.0511 6 17.25C6 17.4489 6.07902 17.6397 6.21967 17.7803C6.36032 17.921 6.55109 18 6.75 18H12.75C12.9489 18 13.1397 17.921 13.2803 17.7803C13.421 17.6397 13.5 17.4489 13.5 17.25C13.5 17.0511 13.421 16.8603 13.2803 16.7197C13.1397 16.579 12.9489 16.5 12.75 16.5Z" fill="white"/>
<path d="M21 3.1155C21 1.81125 19.9582 0.75 18.678 0.75H5.32125C4.04175 0.75 3 1.81125 3 3.1155V20.8845C3 22.1888 4.04175 23.25 5.32125 23.25H15.5167C15.5535 23.25 15.585 23.2343 15.6202 23.229C15.8302 23.2665 16.053 23.223 16.2292 23.076L20.7292 19.326C20.8201 19.2483 20.8906 19.1496 20.9348 19.0386C20.9789 18.9275 20.9954 18.8074 20.9827 18.6885C20.9865 18.6607 21 18.6368 21 18.6083V3.1155ZM4.5 20.8845V3.1155C4.5 2.6385 4.86825 2.25 5.32125 2.25H18.678C19.1317 2.25 19.5 2.6385 19.5 3.1155V17.25H17.25C16.6533 17.25 16.081 17.4871 15.659 17.909C15.2371 18.331 15 18.9033 15 19.5V21.75H5.32125C4.86825 21.75 4.5 21.3615 4.5 20.8845ZM19.0785 18.75L16.5 20.8987V19.5C16.5 19.3011 16.579 19.1103 16.7197 18.9697C16.8603 18.829 17.0511 18.75 17.25 18.75H19.0785Z" fill="white"/>
</svg>
