<svg width="24" height="25" viewBox="0 0 24 25" fill="none" xmlns="http://www.w3.org/2000/svg">
<path d="M6.75 8H17.25C17.4489 8 17.6397 7.92098 17.7803 7.78033C17.921 7.63968 18 7.44891 18 7.25C18 7.05109 17.921 6.86032 17.7803 6.71967C17.6397 6.57902 17.4489 6.5 17.25 6.5H6.75C6.55109 6.5 6.36032 6.57902 6.21967 6.71967C6.07902 6.86032 6 7.05109 6 7.25C6 7.44891 6.07902 7.63968 6.21967 7.78033C6.36032 7.92098 6.55109 8 6.75 8ZM6.75 13.25H17.25C17.4489 13.25 17.6397 13.171 17.7803 13.0303C17.921 12.8897 18 12.6989 18 12.5C18 12.3011 17.921 12.1103 17.7803 11.9697C17.6397 11.829 17.4489 11.75 17.25 11.75H6.75C6.55109 11.75 6.36032 11.829 6.21967 11.9697C6.07902 12.1103 6 12.3011 6 12.5C6 12.6989 6.07902 12.8897 6.21967 13.0303C6.36032 13.171 6.55109 13.25 6.75 13.25ZM12.75 17H6.75C6.55109 17 6.36032 17.079 6.21967 17.2197C6.07902 17.3603 6 17.5511 6 17.75C6 17.9489 6.07902 18.1397 6.21967 18.2803C6.36032 18.421 6.55109 18.5 6.75 18.5H12.75C12.9489 18.5 13.1397 18.421 13.2803 18.2803C13.421 18.1397 13.5 17.9489 13.5 17.75C13.5 17.5511 13.421 17.3603 13.2803 17.2197C13.1397 17.079 12.9489 17 12.75 17Z" fill="white"/>
<path d="M21 3.6155C21 2.31125 19.9583 1.25 18.678 1.25H5.32125C4.04175 1.25 3 2.31125 3 3.6155V21.3845C3 22.6888 4.04175 23.75 5.32125 23.75H15.5167C15.5535 23.75 15.585 23.7343 15.6202 23.729C15.8302 23.7665 16.053 23.723 16.2292 23.576L20.7292 19.826C20.8201 19.7483 20.8906 19.6496 20.9348 19.5386C20.9789 19.4275 20.9954 19.3074 20.9827 19.1885C20.9865 19.1607 21 19.1368 21 19.1082V3.6155ZM4.5 21.3845V3.6155C4.5 3.1385 4.86825 2.75 5.32125 2.75H18.678C19.1318 2.75 19.5 3.1385 19.5 3.6155V17.75H17.25C16.6533 17.75 16.081 17.9871 15.659 18.409C15.2371 18.831 15 19.4033 15 20V22.25H5.32125C4.86825 22.25 4.5 21.8615 4.5 21.3845ZM19.0785 19.25L16.5 21.3988V20C16.5 19.8011 16.579 19.6103 16.7197 19.4697C16.8603 19.329 17.0511 19.25 17.25 19.25H19.0785Z" fill="white"/>
</svg>
