<svg width="20" height="19" viewBox="0 0 20 19" fill="none" xmlns="http://www.w3.org/2000/svg">
<path d="M18.953 8.32695C19.6772 8.32695 19.9796 7.39648 19.3913 6.96758L10.4405 0.45664C10.3127 0.362989 10.1584 0.3125 9.9999 0.3125C9.84144 0.3125 9.6871 0.362989 9.55928 0.45664L0.608495 6.96758C0.0202137 7.39414 0.322557 8.32695 1.04912 8.32695H2.4999V17.0926H0.812401C0.709276 17.0926 0.624901 17.177 0.624901 17.2801V18.4988C0.624901 18.602 0.709276 18.6863 0.812401 18.6863H19.1874C19.2905 18.6863 19.3749 18.602 19.3749 18.4988V17.2801C19.3749 17.177 19.2905 17.0926 19.1874 17.0926H17.4999V8.32695H18.953ZM9.9999 2.10898L16.3538 6.73086H3.64599L9.9999 2.10898ZM4.1874 8.32695H6.92959V17.0926H4.1874V8.32695ZM8.61709 8.32695H11.3593V17.0926H8.61709V8.32695ZM15.8124 17.0926H13.0468V8.32695H15.8124V17.0926Z" fill="white"/>
</svg>
