<svg width="24" height="25" viewBox="0 0 24 25" fill="none" xmlns="http://www.w3.org/2000/svg">
<g clip-path="url(#clip0_1292_3180)">
<path d="M8.16012 14.5527C7.70412 15.0087 7.70412 15.7528 8.16012 16.2088C8.61612 16.6648 9.36012 16.6648 9.81612 16.2088C11.0161 15.0088 12.9841 15.0088 14.1841 16.2088C14.4121 16.4368 14.7121 16.5568 15.0121 16.5568C15.3121 16.5568 15.6121 16.4368 15.8401 16.2088C16.2961 15.7528 16.2961 15.0087 15.8401 14.5527C13.7161 12.4408 10.2841 12.4408 8.16012 14.5527Z" fill="white"/>
<path d="M17.952 12.4415C18.18 12.6695 18.4801 12.7895 18.7801 12.7895C19.08 12.7895 19.38 12.6695 19.608 12.4415C20.064 11.9855 20.064 11.2415 19.608 10.7855C15.42 6.59753 8.59205 6.59753 4.39205 10.7855C3.93605 11.2415 3.93605 11.9855 4.39205 12.4415C4.84805 12.8975 5.59205 12.8975 6.04805 12.4415C9.33605 9.15353 14.6641 9.15353 17.952 12.4415Z" fill="white"/>
<path d="M23.6521 6.72634C20.5441 3.61834 16.4041 1.90234 12.0001 1.90234C7.5961 1.90234 3.4561 3.61834 0.348103 6.72634C-0.107896 7.18234 -0.107896 7.92634 0.348103 8.38234C0.804103 8.83834 1.5481 8.83834 2.0041 8.38234C7.5241 2.86234 16.5001 2.86234 22.0081 8.38234C22.2361 8.61034 22.5361 8.73034 22.8361 8.73034C23.1361 8.73034 23.4361 8.61034 23.6641 8.38234C24.1201 7.92634 24.1201 7.18234 23.6521 6.72634Z" fill="white"/>
<path d="M10.3921 19.6158C10.3921 20.0423 10.5615 20.4513 10.8631 20.7528C11.1646 21.0544 11.5736 21.2238 12.0001 21.2238C12.4266 21.2238 12.8356 21.0544 13.1371 20.7528C13.4387 20.4513 13.6081 20.0423 13.6081 19.6158C13.6081 19.1893 13.4387 18.7803 13.1371 18.4788C12.8356 18.1772 12.4266 18.0078 12.0001 18.0078C11.5736 18.0078 11.1646 18.1772 10.8631 18.4788C10.5615 18.7803 10.3921 19.1893 10.3921 19.6158Z" fill="white"/>
<path d="M20.2921 16.3867C18.4441 16.3867 16.9441 17.8867 16.9441 19.7347C16.9441 21.5827 18.4441 23.0827 20.2921 23.0827C22.1401 23.0827 23.6401 21.5827 23.6401 19.7347C23.6521 17.8867 22.1521 16.3867 20.2921 16.3867ZM22.2601 19.0267L20.1721 21.1147C20.0761 21.2107 19.9561 21.2467 19.8361 21.2467C19.7161 21.2467 19.5961 21.1987 19.5001 21.1147L18.3121 19.9267C18.1321 19.7467 18.1321 19.4467 18.3121 19.2667C18.4921 19.0867 18.7921 19.0867 18.9721 19.2667L19.8241 20.1187L21.5881 18.3547C21.7681 18.1747 22.0681 18.1747 22.2481 18.3547C22.4521 18.5467 22.4521 18.8467 22.2601 19.0267Z" fill="white"/>
</g>
<defs>
<clipPath id="clip0_1292_3180">
<rect width="24" height="24" fill="white" transform="translate(0 0.5)"/>
</clipPath>
</defs>
</svg>
