<svg width="24" height="25" viewBox="0 0 24 25" fill="none" xmlns="http://www.w3.org/2000/svg">
<g clip-path="url(#clip0_1292_3197)">
<path d="M12 0.613281C5.3714 0.613281 0.114258 5.87042 0.114258 12.499C0.114258 19.1276 5.48569 24.3847 12 24.3847C18.6285 24.3847 23.8857 19.0133 23.8857 12.499C23.8857 5.87042 18.6285 0.613281 12 0.613281ZM12 22.099C6.74283 22.099 2.39997 17.7561 2.39997 12.499C2.39997 7.24185 6.74283 2.899 12 2.899C17.2571 2.899 21.6 7.24185 21.6 12.499C21.6 17.7561 17.2571 22.099 12 22.099Z" fill="white"/>
<path d="M6.01937 16.864L16.4445 6.43999L18.0605 8.05599L7.63651 18.48L6.01937 16.864ZM12.5714 16.272H18.3999V18.1006H12.5714V16.272ZM7.19994 12.0434H9.02851V9.98627H11.0857V8.1577H9.02851V6.21484H7.19994V8.1577H5.25708V9.98627H7.19994V12.0434Z" fill="white"/>
</g>
<defs>
<clipPath id="clip0_1292_3197">
<rect width="24" height="24" fill="white" transform="translate(0 0.5)"/>
</clipPath>
</defs>
</svg>
