<svg width="20" height="21" viewBox="0 0 20 21" fill="none" xmlns="http://www.w3.org/2000/svg">
<path d="M19 8.5H18C18 4.089 14.411 0.5 10 0.5C5.589 0.5 2 4.089 2 8.5H1C0.734783 8.5 0.480429 8.60536 0.292893 8.79289C0.105357 8.98043 6.21601e-09 9.23478 0 9.5V15.5C0 15.7652 0.105357 16.0196 0.292893 16.2071C0.480429 16.3946 0.734783 16.5 1 16.5H3C3.26522 16.5 3.51957 16.3946 3.70711 16.2071C3.89464 16.0196 4 15.7652 4 15.5V8.5C4 5.191 6.691 2.5 10 2.5C13.309 2.5 16 5.191 16 8.5V18.5H12C12 18.2348 11.8946 17.9804 11.7071 17.7929C11.5196 17.6054 11.2652 17.5 11 17.5H9C8.73478 17.5 8.48043 17.6054 8.29289 17.7929C8.10536 17.9804 8 18.2348 8 18.5V19.5C8 19.7652 8.10536 20.0196 8.29289 20.2071C8.48043 20.3946 8.73478 20.5 9 20.5H17C17.2652 20.5 17.5196 20.3946 17.7071 20.2071C17.8946 20.0196 18 19.7652 18 19.5V16.5H19C19.2652 16.5 19.5196 16.3946 19.7071 16.2071C19.8946 16.0196 20 15.7652 20 15.5V9.5C20 9.23478 19.8946 8.98043 19.7071 8.79289C19.5196 8.60536 19.2652 8.5 19 8.5Z" fill="white"/>
</svg>
