<svg width="24" height="24" viewBox="0 0 24 24" fill="none" xmlns="http://www.w3.org/2000/svg">
<path d="M17 14C16.7 14 16.5 14.1 16.3 14.3L11.3 19.3C10.9 19.7 10.9 20.3 11.3 20.7C11.7 21.1 12.3 21.1 12.7 20.7L17.7 15.7C18.1 15.3 18.1 14.7 17.7 14.3C17.5 14.1 17.3 14 17 14Z" fill="white"/>
<path d="M7 14C6.7 14 6.5 14.1 6.3 14.3C5.9 14.7 5.9 15.3 6.3 15.7L11.3 20.7C11.7 21.1 12.3 21.1 12.7 20.7C13.1 20.3 13.1 19.7 12.7 19.3L7.7 14.3C7.5 14.1 7.3 14 7 14Z" fill="white"/>
<path d="M12 3C11.4 3 11 3.4 11 4V20C11 20.6 11.4 21 12 21C12.6 21 13 20.6 13 20V4C13 3.4 12.6 3 12 3Z" fill="white"/>
</svg>
