<svg width="20" height="16" viewBox="0 0 20 16" fill="none" xmlns="http://www.w3.org/2000/svg">
<path d="M15 3H19C19.2652 3 19.5196 3.10536 19.7071 3.29289C19.8946 3.48043 20 3.73478 20 4V15C20 15.2652 19.8946 15.5196 19.7071 15.7071C19.5196 15.8946 19.2652 16 19 16C18.7348 16 18.4804 15.8946 18.2929 15.7071C18.1054 15.5196 18 15.2652 18 15V5H5V12C5 12.2652 4.89464 12.5196 4.70711 12.7071C4.51957 12.8946 4.26522 13 4 13C3.73478 13 3.48043 12.8946 3.29289 12.7071C3.10536 12.5196 3 12.2652 3 12V5H2V14H15V7C15 6.73478 15.1054 6.48043 15.2929 6.29289C15.4804 6.10536 15.7348 6 16 6C16.2652 6 16.5196 6.10536 16.7071 6.29289C16.8946 6.48043 17 6.73478 17 7V15C17 15.2652 16.8946 15.5196 16.7071 15.7071C16.5196 15.8946 16.2652 16 16 16H1C0.734783 16 0.480429 15.8946 0.292893 15.7071C0.105357 15.5196 6.21601e-09 15.2652 0 15V4C6.21601e-09 3.73478 0.105357 3.48043 0.292893 3.29289C0.480429 3.10536 0.734783 3 1 3H5V1C5 0.734783 5.10536 0.480429 5.29289 0.292893C5.48043 0.105357 5.73478 6.21601e-09 6 0H14C14.2652 6.21601e-09 14.5196 0.105357 14.7071 0.292893C14.8946 0.480429 15 0.734783 15 1V3ZM7 2V3H13V2H7Z" fill="white"/>
</svg>
