<svg width="21" height="10" viewBox="0 0 21 10" fill="none" xmlns="http://www.w3.org/2000/svg">
<path d="M9.5 10H5.5C4.11667 10 2.9375 9.5125 1.9625 8.5375C0.9875 7.5625 0.5 6.38333 0.5 5C0.5 3.61667 0.9875 2.4375 1.9625 1.4625C2.9375 0.4875 4.11667 0 5.5 0H9.5V2H5.5C4.66667 2 3.95833 2.29167 3.375 2.875C2.79167 3.45833 2.5 4.16667 2.5 5C2.5 5.83333 2.79167 6.54167 3.375 7.125C3.95833 7.70833 4.66667 8 5.5 8H9.5V10ZM6.5 6V4H14.5V6H6.5ZM11.5 10V8H15.5C16.3333 8 17.0417 7.70833 17.625 7.125C18.2083 6.54167 18.5 5.83333 18.5 5C18.5 4.16667 18.2083 3.45833 17.625 2.875C17.0417 2.29167 16.3333 2 15.5 2H11.5V0H15.5C16.8833 0 18.0625 0.4875 19.0375 1.4625C20.0125 2.4375 20.5 3.61667 20.5 5C20.5 6.38333 20.0125 7.5625 19.0375 8.5375C18.0625 9.5125 16.8833 10 15.5 10H11.5Z" fill="white"/>
</svg>
