<svg width="24" height="24" viewBox="0 0 24 24" fill="none" xmlns="http://www.w3.org/2000/svg">
<path d="M18.7438 12.9595V20.6101H2.26584V4.13203H9.91635V2.95508H2.26584C1.6158 2.95508 1.08887 3.48199 1.08887 4.13203V20.61C1.08887 21.2601 1.6158 21.787 2.26584 21.787H18.7438C19.3939 21.787 19.9208 21.2601 19.9208 20.61V12.9595H18.7438ZM12.5733 9.63385H4.03688V8.1167H12.5733V9.63385ZM16.0362 13.8882H4.0024V12.371H16.0362V13.8882ZM16.7258 18.2327H4.03688V16.7156H16.7258V18.2327Z" fill="white"/>
<path d="M21.048 5.98854H20.5997C20.414 5.98854 20.2174 5.84365 20.1622 5.66643L19.9297 5.10173C19.8424 4.93837 19.8784 4.69732 20.0089 4.56612L20.3271 4.24854C20.3801 4.19541 20.4131 4.12194 20.4131 4.04084C20.4131 3.95969 20.3806 3.88631 20.3271 3.83296L19.7872 3.29398C19.7341 3.24092 19.6609 3.20811 19.58 3.20811C19.4991 3.20811 19.4254 3.2411 19.3723 3.29398L19.0543 3.61204C18.9237 3.74307 18.6818 3.77903 18.5182 3.69124L17.954 3.45901C17.7775 3.4042 17.632 3.20729 17.632 3.02168V2.57281C17.632 2.49787 17.6033 2.4227 17.546 2.36541C17.4886 2.30801 17.4136 2.2793 17.3387 2.2793H16.5762C16.5009 2.2793 16.426 2.30801 16.3686 2.36541C16.3113 2.42272 16.2825 2.49789 16.2825 2.57281V3.02168C16.2825 3.20729 16.1383 3.4042 15.961 3.45901L15.3963 3.69124C15.2324 3.77903 14.9917 3.74346 14.8612 3.61204L14.5418 3.29418C14.4887 3.24106 14.4151 3.20857 14.3341 3.20857C14.2532 3.20857 14.18 3.24154 14.1269 3.29441L13.5884 3.83293C13.5352 3.88604 13.5027 3.9593 13.5023 4.04036C13.5023 4.1213 13.5353 4.19475 13.5884 4.24787L13.906 4.5661C14.0374 4.69755 14.0734 4.93842 13.9852 5.1017L13.7527 5.66685C13.6978 5.84411 13.5014 5.98903 13.3156 5.98903L12.8669 5.98852C12.7916 5.98852 12.7166 6.01726 12.6593 6.07466C12.6019 6.13204 12.5732 6.20714 12.5732 6.28231V7.04458C12.5732 7.1197 12.6019 7.19483 12.6593 7.25225C12.7166 7.30942 12.7916 7.33809 12.8669 7.33809H13.3156C13.5014 7.3385 13.6975 7.48342 13.7523 7.66022L13.9852 8.22493C14.0725 8.3887 14.037 8.63042 13.906 8.76095L13.5875 9.07862C13.5343 9.13173 13.5014 9.20513 13.5014 9.28646C13.5014 9.36738 13.5344 9.44099 13.5875 9.49411L14.1274 10.0331C14.1804 10.0862 14.2536 10.119 14.3345 10.119C14.4155 10.119 14.4891 10.0862 14.5422 10.0331L14.8607 9.71528C14.9913 9.58441 15.2319 9.5485 15.395 9.63712L15.961 9.8694C16.1383 9.92443 16.2825 10.1209 16.2825 10.3066V10.7541C16.2825 10.829 16.3112 10.9043 16.3686 10.9616C16.4259 11.0186 16.5009 11.0473 16.5762 11.0473H17.3382C17.4136 11.0473 17.4885 11.0186 17.5459 10.9616C17.6033 10.9043 17.632 10.829 17.632 10.7541V10.3066C17.632 10.1209 17.7775 9.92445 17.9539 9.8694L18.5191 9.63712C18.6826 9.54853 18.924 9.5845 19.0555 9.71528L19.3719 10.0329C19.4249 10.0862 19.4982 10.1194 19.5795 10.1194C19.6604 10.1196 19.7341 10.0869 19.7871 10.0335L20.327 9.49411C20.3805 9.44078 20.413 9.36736 20.413 9.2863C20.413 9.20513 20.3801 9.13173 20.327 9.07862L20.0089 8.76095C19.8783 8.63033 19.8424 8.3887 19.9297 8.22493L20.1621 7.66022C20.2173 7.48345 20.4148 7.3385 20.5997 7.3385H21.048C21.1229 7.3385 21.1978 7.30979 21.2551 7.25241C21.3125 7.19501 21.3412 7.11991 21.3412 7.04481V6.28231C21.3412 6.20714 21.3125 6.13204 21.2551 6.07466C21.1979 6.01728 21.123 5.98854 21.048 5.98854ZM16.9585 8.34861C16.027 8.34861 15.2721 7.59427 15.2721 6.66288C15.2721 5.73167 16.027 4.97694 16.9585 4.97694C17.8897 4.97694 18.6445 5.73167 18.6445 6.66288C18.6445 7.59427 17.8897 8.34861 16.9585 8.34861Z" fill="white"/>
</svg>
